<svg version="1.1" id="Layer_1" xmlns="http://www.w3.org/2000/svg" xmlns:xlink="http://www.w3.org/1999/xlink" x="0px" y="0px"
	 width="100%" viewBox="0 0 361 361" enable-background="new 0 0 361 361" xml:space="preserve">
<path fill="#24282C" opacity="1.000000" stroke="none" 
	d="
M176.000000,362.000000 
	C117.353470,362.000000 59.206940,362.000000 1.030205,362.000000 
	C1.030205,241.728470 1.030205,121.456924 1.030205,1.092691 
	C121.229813,1.092691 241.459732,1.092691 361.844818,1.092691 
	C361.844818,121.333176 361.844818,241.666565 361.844818,362.000000 
	C300.123657,362.000000 238.311829,362.000000 176.000000,362.000000 
M68.846527,185.469467 
	C68.634621,185.249359 68.419792,185.032150 68.035706,184.202042 
	C68.410980,182.174667 68.786263,180.147293 69.488991,177.808945 
	C69.706566,177.600449 69.918777,177.386642 70.481934,176.849289 
	C70.711243,176.628113 70.930534,176.397430 71.730278,175.828964 
	C76.973427,171.656815 77.788918,165.639023 77.827721,159.659042 
	C77.880325,151.550232 77.075378,143.439377 76.966354,135.324997 
	C76.869621,128.125229 79.109436,125.669296 86.195213,123.965836 
	C88.441193,123.425888 90.634789,122.667999 92.961067,121.536858 
	C92.961067,121.536858 93.050186,121.059792 93.507713,120.470787 
	C95.342751,116.563309 95.887306,112.708435 92.504272,108.468285 
	C91.456062,108.021172 90.415695,107.206306 89.358429,107.183769 
	C78.680771,106.956131 68.324402,108.611855 62.114662,118.304054 
	C55.850052,128.081909 56.816441,139.030792 59.908615,150.562927 
	C59.938286,151.304810 59.967953,152.046692 59.667877,153.509369 
	C59.439484,155.311203 59.086109,157.107361 59.003895,158.915833 
	C58.604115,167.709915 54.884365,171.720047 46.208946,173.238159 
	C44.120594,173.603607 42.240494,175.159134 40.301060,176.211868 
	C40.301060,176.211868 40.251190,176.239990 39.667843,176.656265 
	C37.319588,180.495071 37.043491,184.245270 40.596710,188.074799 
	C40.728825,188.177872 40.860943,188.280930 41.250282,188.927017 
	C42.854801,189.332932 44.459324,189.738846 46.803932,190.162598 
	C47.545696,190.164917 48.287464,190.167236 49.470085,190.192047 
	C49.470085,190.192047 49.912254,190.196884 50.501369,190.070572 
	C50.692501,190.008881 50.883629,189.947205 50.992107,189.829453 
	C50.992107,189.829453 51.048187,189.746826 51.363937,190.348618 
	C57.782436,194.814850 59.814274,201.095245 58.984402,208.603271 
	C58.674572,211.406357 58.372559,214.223892 58.321430,217.039459 
	C58.154411,226.237045 55.957264,235.721390 62.115368,244.622818 
	C62.409275,245.089310 62.703182,245.555801 63.373409,246.134781 
	C63.373409,246.134781 63.756130,246.223053 63.864815,246.613464 
	C63.864815,246.613464 63.980389,247.003799 64.242645,247.633392 
	C68.876068,255.001877 76.518562,256.169373 84.142868,256.790405 
	C87.030014,257.025574 90.050323,255.625870 93.531235,254.463501 
	C95.532295,250.549576 95.859802,246.709076 92.578331,242.471603 
	C88.740219,241.327103 84.902115,240.182617 80.614098,238.561981 
	C79.393211,237.018982 78.172325,235.475998 76.683136,233.541153 
	C76.495148,233.283218 76.293938,233.036072 76.121040,231.896927 
	C76.184990,227.645172 76.248940,223.393402 76.706238,218.497574 
	C76.543732,210.830307 76.797989,203.119080 75.995979,195.519302 
	C75.709610,192.805664 72.866135,190.361877 70.864838,187.448303 
	C70.647888,187.216675 70.417915,186.998779 69.852737,186.448532 
	C69.637115,186.217300 69.407875,186.000488 68.846527,185.469467 
M204.046005,177.074890 
	C204.071686,174.420029 204.097366,171.765152 204.568100,168.557892 
	C205.664810,165.447754 206.774567,162.342133 207.855927,159.226669 
	C211.989532,147.317398 222.487534,141.015488 235.619186,143.283234 
	C238.568848,144.819061 241.609116,146.205078 244.448914,147.922562 
	C249.984085,151.270187 251.570786,150.913681 255.674789,144.916916 
	C258.898712,140.206161 258.397919,137.417725 253.730957,133.911575 
	C243.126984,125.945175 230.992752,125.164986 218.901382,128.119492 
	C199.444885,132.873611 191.053940,147.716110 186.895905,166.757324 
	C186.665024,176.037888 186.372345,185.317825 186.280151,194.599762 
	C186.268402,195.782150 187.303772,196.974930 187.968674,198.441925 
	C187.968674,198.441925 187.994812,198.742462 187.969376,199.635666 
	C190.971222,228.301407 219.704498,246.925797 248.522324,233.190994 
	C250.272720,232.356735 251.370819,230.153839 252.900208,228.703857 
	C252.900208,228.703857 252.794479,228.841278 253.305756,228.788223 
	C253.878220,228.115891 254.450699,227.443542 255.289536,226.310135 
	C255.832169,225.863388 256.374817,225.416641 257.196106,224.864441 
	C257.441162,224.571121 257.686188,224.277802 258.123291,223.394287 
	C257.383759,214.915390 251.586548,211.829727 244.722427,216.261459 
	C228.853622,226.506943 211.939133,219.906509 207.058975,201.629349 
	C206.341232,198.941269 205.185043,196.370255 204.201706,192.907684 
	C204.137375,190.613861 204.073044,188.320038 204.252884,185.315903 
	C204.174316,182.865723 204.095764,180.415558 204.046005,177.074890 
M321.569244,190.033005 
	C325.649323,187.530014 326.299133,181.427200 322.699829,175.351501 
	C320.781891,174.573959 318.924561,173.383102 316.935364,173.091293 
	C308.853851,171.905838 305.032806,168.341385 304.292480,160.237152 
	C303.977997,156.794449 304.278534,153.275589 304.520233,149.806717 
	C304.877899,144.673462 306.088898,139.514343 305.783203,134.435684 
	C304.746155,117.206993 296.619995,108.092667 278.627167,107.122734 
	C275.850830,106.973068 272.997772,108.245293 269.955780,109.564415 
	C269.897919,109.802452 269.840027,110.040497 269.319550,110.744652 
	C267.573730,113.921013 267.293121,116.967247 270.292633,120.261444 
	C270.316681,120.443878 270.340759,120.626312 270.555054,121.297173 
	C271.032837,121.816063 271.510620,122.334953 272.752899,123.053871 
	C273.563416,123.242081 274.369904,123.450195 275.185059,123.615479 
	C284.764343,125.557709 287.411957,129.205063 286.452179,138.929764 
	C285.962158,143.895187 285.297272,148.877716 285.313965,153.850479 
	C285.337311,160.808136 284.662476,168.462372 289.597748,173.910522 
	C294.851410,179.710144 295.172546,184.512482 289.524628,190.524567 
	C285.348969,196.598846 284.808960,203.443924 285.381653,210.489151 
	C285.796844,215.597107 286.467102,220.685516 286.827179,225.796478 
	C287.419128,234.199158 284.576630,237.854614 276.574768,240.286850 
	C274.286987,240.982239 272.364685,242.879944 269.694031,244.646332 
	C269.593201,247.743469 269.492340,250.840591 269.671387,254.572784 
	C271.036499,255.345795 272.358826,256.700989 273.773071,256.804871 
	C296.609650,258.482239 309.266663,243.316193 304.760101,220.231720 
	C304.486176,216.444839 304.012299,212.659973 303.974030,208.870712 
	C303.833557,194.962128 307.225677,191.270096 321.569244,190.033005 
M117.580154,234.348083 
	C118.957474,234.845840 120.334763,235.774521 121.712112,235.774612 
	C135.310577,235.775558 148.910126,235.684219 162.506409,235.447845 
	C164.595871,235.411514 166.670242,234.506287 169.197250,233.424316 
	C169.100616,229.594589 169.003967,225.764847 168.398682,221.410797 
	C165.180878,220.943878 161.963654,220.102325 158.745117,220.097260 
	C153.840881,220.089554 151.936737,217.963913 151.960449,213.150421 
	C152.061752,192.579391 151.947479,172.007385 152.029007,151.436172 
	C152.052658,145.467377 153.494995,144.391998 159.446259,143.920914 
	C162.614731,143.670135 165.726440,142.702103 169.209686,141.585754 
	C169.411530,141.042496 169.613358,140.499237 170.431686,139.444275 
	C170.060349,136.535294 169.689011,133.626297 169.109695,130.361877 
	C169.109695,130.361877 168.915131,129.998932 168.177444,129.659637 
	C167.043869,129.427582 165.911118,128.998184 164.776581,128.993408 
	C150.479309,128.933121 136.181610,128.897705 121.884605,128.970276 
	C120.282539,128.978394 118.684021,129.687241 116.761543,130.939758 
	C116.877724,134.643097 116.993912,138.346420 117.620979,142.567566 
	C119.845116,143.023911 122.057747,143.798965 124.295441,143.879745 
	C132.635696,144.180878 133.934555,145.181854 133.870468,153.465027 
	C133.763916,167.232468 133.254211,180.996811 133.152679,194.764236 
	C133.107468,200.896378 133.637939,207.032974 133.914047,213.167236 
	C134.129639,217.956924 131.912125,220.030746 127.061951,220.162201 
	C123.721230,220.252731 120.406380,221.297272 116.734688,222.525177 
	C116.833595,226.289764 116.932503,230.054367 117.580154,234.348083 
z"/>
<path fill="#113E1A" opacity="1.000000" stroke="none" 
	d="
M187.181076,165.958786 
	C191.053940,147.716110 199.444885,132.873611 218.901382,128.119492 
	C230.992752,125.164986 243.126984,125.945175 253.730957,133.911575 
	C258.397919,137.417725 258.898712,140.206161 255.674789,144.916916 
	C251.570786,150.913681 249.984085,151.270187 244.448914,147.922562 
	C241.609116,146.205078 238.568848,144.819061 235.312149,142.791794 
	C235.005981,141.661621 235.006836,141.022903 235.345184,140.477112 
	C237.475357,141.150543 239.268051,141.731018 241.182190,142.611053 
	C242.964066,144.156525 244.468338,145.769592 246.323151,146.558456 
	C248.823151,147.621689 251.535233,147.920105 252.102310,144.034637 
	C252.054535,144.030899 252.047058,144.126450 252.335678,143.973907 
	C253.971817,142.319992 255.319336,140.818634 256.993530,138.953323 
	C255.031189,137.654709 253.590729,136.701447 252.110138,135.778961 
	C252.070038,135.809723 252.131577,135.889908 251.978516,135.575562 
	C240.192810,127.818085 227.892654,126.721977 214.799988,131.431793 
	C214.378082,131.591309 214.183365,131.754379 213.753265,132.017090 
	C213.308899,132.149765 213.140472,132.231216 212.781113,132.360077 
	C212.350510,132.532303 212.162750,132.711548 211.759125,133.025681 
	C211.299469,133.398575 211.107590,133.690979 210.968796,133.955368 
	C211.021881,133.927353 210.965836,133.821198 210.707428,133.817322 
	C210.300400,133.900665 210.151810,133.987885 209.762512,134.132996 
	C209.191284,134.330429 208.985229,134.574875 208.936691,134.925995 
	C208.969757,134.927765 208.963852,134.861801 208.634033,134.935272 
	C206.801697,136.289413 205.299164,137.570068 203.828903,138.900726 
	C203.861191,138.950714 203.961166,138.886124 203.644653,138.938110 
	C202.855240,139.648422 202.382324,140.306763 201.940765,140.970917 
	C201.972137,140.976730 201.968872,140.913025 201.688385,140.959045 
	C201.244537,141.329865 201.081177,141.654648 200.943939,141.940094 
	C200.970047,141.900742 200.891327,141.848526 200.589981,141.981110 
	C199.463104,143.388428 198.637573,144.663132 197.858063,145.947311 
	C197.904068,145.956772 197.922928,145.864746 197.632538,146.010422 
	C196.856628,147.100891 196.371094,148.045700 195.922180,148.995316 
	C195.958801,149.000137 195.968414,148.926910 195.692230,149.082123 
	C195.249084,149.825958 195.082123,150.414551 194.946884,150.994080 
	C194.978607,150.985031 194.951263,150.924973 194.665726,151.068375 
	C194.224731,151.809387 194.069290,152.406982 193.937973,152.958740 
	C193.962097,152.912888 193.870361,152.864655 193.587311,153.090729 
	C192.771530,155.182510 192.238815,157.048218 191.717743,158.864868 
	C191.729401,158.815842 191.631500,158.791931 191.273193,158.855957 
	C189.998611,161.302734 189.082336,163.685471 187.919495,166.043625 
	C187.672943,166.019043 187.181076,165.958786 187.181076,165.958786 
z"/>
<path fill="#0A3413" opacity="1.000000" stroke="none" 
	d="
M117.079964,221.915436 
	C120.406380,221.297272 123.721230,220.252731 127.061951,220.162201 
	C131.912125,220.030746 134.129639,217.956924 133.914047,213.167236 
	C133.637939,207.032974 133.107468,200.896378 133.152679,194.764236 
	C133.254211,180.996811 133.763916,167.232468 133.870468,153.465027 
	C133.934555,145.181854 132.635696,144.180878 124.295441,143.879745 
	C122.057747,143.798965 119.845116,143.023911 117.819847,142.275726 
	C123.626762,141.980576 129.234818,141.977264 134.980865,142.173889 
	C135.309753,142.635773 135.531860,142.867844 135.798691,143.534027 
	C135.802170,169.638596 135.792130,195.279190 135.599838,221.096054 
	C135.204498,221.534592 134.991425,221.796860 134.493530,222.097610 
	C133.832352,222.202148 133.456039,222.268204 132.621033,222.266678 
	C128.779846,222.225418 125.397316,222.251724 121.608032,222.198853 
	C119.827499,222.051590 118.453735,221.983521 117.079964,221.915436 
z"/>
<path fill="#113F1B" opacity="1.000000" stroke="none" 
	d="
M270.180206,108.859955 
	C272.997772,108.245293 275.850830,106.973068 278.627167,107.122734 
	C296.619995,108.092667 304.746155,117.206993 305.783203,134.435684 
	C306.088898,139.514343 304.877899,144.673462 304.520233,149.806717 
	C304.278534,153.275589 303.977997,156.794449 304.292480,160.237152 
	C305.032806,168.341385 308.853851,171.905838 316.935364,173.091293 
	C318.924561,173.383102 320.781891,174.573959 322.848999,175.681122 
	C322.998199,176.010757 322.930389,176.060165 322.522400,175.968506 
	C317.770996,175.166458 313.427521,174.456039 308.885284,173.536713 
	C308.144592,173.141815 307.602722,172.955826 307.011780,172.829086 
	C306.962708,172.888336 307.081146,172.986511 307.020142,172.713043 
	C306.636627,172.267731 306.314087,172.095917 305.991455,171.965637 
	C305.991394,172.007202 306.074524,172.007370 305.987885,171.746826 
	C305.597961,171.299500 305.294647,171.112717 304.991821,170.967560 
	C304.992249,171.009201 305.075500,171.008392 304.995392,170.742065 
	C304.615051,170.289673 304.314819,170.103592 304.091125,169.982819 
	C304.167633,170.048126 304.298279,169.895126 304.200012,169.512772 
	C300.902863,162.196609 301.951324,154.965378 302.385345,147.713730 
	C302.699921,142.457611 302.358826,137.162231 302.255981,131.498688 
	C302.090881,130.342651 301.979919,129.572327 301.920288,128.410355 
	C302.010559,121.404144 298.727020,116.867966 293.111877,113.843475 
	C293.141357,113.878166 293.213745,113.822952 292.995972,113.540909 
	C285.796387,108.962585 278.020996,108.743370 270.180206,108.859955 
z"/>
<path fill="#0A3413" opacity="1.000000" stroke="none" 
	d="
M168.863770,142.057800 
	C165.726440,142.702103 162.614731,143.670135 159.446259,143.920914 
	C153.494995,144.391998 152.052658,145.467377 152.029007,151.436172 
	C151.947479,172.007385 152.061752,192.579391 151.960449,213.150421 
	C151.936737,217.963913 153.840881,220.089554 158.745117,220.097260 
	C161.963654,220.102325 165.180878,220.943878 168.197281,221.726593 
	C162.325592,222.153549 156.655304,222.264725 150.702423,222.240173 
	C150.233887,222.008392 150.047974,221.912354 149.891052,221.369232 
	C149.906769,194.697144 149.893463,168.472153 150.162689,142.097198 
	C150.637726,141.855515 150.830231,141.763809 151.484558,141.741943 
	C157.585510,141.893784 163.224640,141.975800 168.863770,142.057800 
z"/>
<path fill="#57BE5F" opacity="1.000000" stroke="none" 
	d="
M169.036728,141.821777 
	C163.224640,141.975800 157.585510,141.893784 151.768646,141.517639 
	C155.503448,140.762207 159.486008,140.596436 163.294083,139.694214 
	C164.817902,139.333176 165.957321,137.349762 167.271713,136.104843 
	C166.109390,134.891144 165.097122,133.450699 163.730240,132.546143 
	C162.867783,131.975403 161.475494,132.096542 160.320389,132.093597 
	C148.511871,132.063416 136.702927,132.022751 124.894913,132.104340 
	C122.073608,132.123840 118.392921,132.269745 118.928047,136.142014 
	C119.136848,137.652954 122.578743,139.178726 124.803055,139.840134 
	C128.053909,140.806824 131.534576,141.000687 134.880951,141.633514 
	C134.844604,141.743088 134.842865,141.973938 134.842865,141.973938 
	C129.234818,141.977264 123.626762,141.980576 117.564407,142.016830 
	C116.993912,138.346420 116.877724,134.643097 117.381332,130.547638 
	C134.972458,130.103302 151.943787,130.051117 168.915131,129.998932 
	C168.915131,129.998932 169.109695,130.361877 169.177002,130.985260 
	C169.434601,134.391098 169.624893,137.173538 169.815186,139.955978 
	C169.613358,140.499237 169.411530,141.042496 169.036728,141.821777 
z"/>
<path fill="#0E3D17" opacity="1.000000" stroke="none" 
	d="
M289.991180,190.020905 
	C295.172546,184.512482 294.851410,179.710144 289.597748,173.910522 
	C284.662476,168.462372 285.337311,160.808136 285.313965,153.850479 
	C285.297272,148.877716 285.962158,143.895187 286.452179,138.929764 
	C287.411957,129.205063 284.764343,125.557709 275.185059,123.615479 
	C274.369904,123.450195 273.563416,123.242081 272.376892,122.703400 
	C272.006439,122.015587 272.012024,121.678253 272.425049,121.281662 
	C276.894257,122.187469 280.956055,123.152542 285.025452,124.062881 
	C285.033112,124.008148 284.924866,123.985916 285.027710,124.234749 
	C285.428009,124.675941 285.725403,124.868301 286.022552,125.019432 
	C286.022278,124.978203 285.939819,124.978699 286.046509,125.225571 
	C286.440521,125.673393 286.727875,125.874336 287.002441,126.028786 
	C286.989685,125.982285 286.896698,126.007721 286.996063,126.388786 
	C287.535034,132.329697 288.129364,137.882629 288.377777,143.451004 
	C288.745178,151.687454 288.116272,160.047470 289.330322,168.142075 
	C290.304474,174.637238 294.883118,179.335922 301.824646,181.303040 
	C301.838562,182.063950 301.784668,182.500946 301.537903,182.949127 
	C301.345062,182.960312 300.994873,183.136505 300.682556,183.158813 
	C299.515991,183.743423 298.661713,184.305756 297.863342,184.850449 
	C297.919250,184.832809 297.883942,184.720993 297.550842,184.807617 
	C295.243530,186.634277 293.269348,188.374283 290.969177,190.090363 
	C290.425873,190.051254 290.208527,190.036072 289.991180,190.020905 
z"/>
<path fill="#0E3D17" opacity="1.000000" stroke="none" 
	d="
M252.772430,228.587753 
	C251.370819,230.153839 250.272720,232.356735 248.522324,233.190994 
	C219.704498,246.925797 190.971222,228.301407 188.295059,199.403961 
	C191.068954,204.814346 193.517181,210.456421 195.980560,216.061493 
	C195.995712,216.024490 195.923019,215.991592 195.990784,216.302765 
	C196.698959,217.432190 197.339386,218.250443 197.990570,219.036652 
	C198.001312,219.004623 197.935486,218.989395 198.012573,219.255753 
	C198.388336,219.707916 198.687027,219.893707 198.936584,220.033112 
	C198.887436,219.986725 198.794632,220.084976 198.873291,220.413910 
	C200.284546,222.193909 201.617142,223.645004 202.957245,225.066956 
	C202.964767,225.037827 202.905930,225.050400 203.042770,225.360352 
	C205.469147,227.126740 207.758682,228.583176 210.340515,230.226776 
	C213.060226,231.311951 215.487625,232.209991 218.097778,233.409637 
	C219.863358,234.214264 221.446182,234.717300 223.211182,235.286041 
	C223.901886,235.364441 224.410416,235.377121 225.370667,235.371796 
	C228.231812,235.352829 230.641235,235.351868 233.166443,235.368561 
	C233.519608,235.396255 233.748337,235.356277 234.373505,235.172516 
	C239.556198,233.493347 244.333801,231.907928 249.431137,230.220367 
	C250.758041,229.608078 251.765228,229.097916 252.772430,228.587753 
z"/>
<path fill="#0D3916" opacity="1.000000" stroke="none" 
	d="
M204.231720,193.745087 
	C205.185043,196.370255 206.341232,198.941269 207.058975,201.629349 
	C211.939133,219.906509 228.853622,226.506943 244.722427,216.261459 
	C251.586548,211.829727 257.383759,214.915390 257.853577,223.696045 
	C257.583832,223.997787 257.235107,224.012177 257.137970,223.668304 
	C254.995483,220.434952 252.950150,217.545456 250.884262,214.626923 
	C247.250854,217.049652 244.129684,219.130829 240.639038,221.307144 
	C231.958344,224.401566 223.877502,223.879639 216.040741,219.875977 
	C216.053101,219.935837 216.172836,219.911087 215.985550,219.632263 
	C213.585114,217.157394 211.371948,214.961349 209.081299,212.805695 
	C209.003830,212.846085 209.084564,213.001053 209.086197,212.690384 
	C208.731720,211.893356 208.375595,211.407013 208.013489,210.957596 
	C208.007492,210.994537 208.081375,211.006500 208.019928,210.724762 
	C207.655594,210.260574 207.352737,210.078125 207.078522,209.950089 
	C207.107178,210.004501 207.215988,209.947174 207.236359,209.562347 
	C206.523026,207.593948 205.789291,206.010361 205.042801,204.454559 
	C205.030045,204.482330 205.085999,204.457687 205.087723,204.081650 
	C204.745041,203.111938 204.400650,202.518250 204.140015,202.021942 
	C204.223770,202.119293 204.418518,201.951797 204.407074,201.549866 
	C204.115677,199.366379 203.835709,197.584824 203.723404,195.288300 
	C204.004623,194.430573 204.118164,194.087830 204.231720,193.745087 
z"/>
<path fill="#11461A" opacity="1.000000" stroke="none" 
	d="
M289.757904,190.272736 
	C290.208527,190.036072 290.425873,190.051254 290.847321,190.439697 
	C290.058655,194.211685 289.065918,197.610397 287.973511,201.469193 
	C288.284943,212.265533 288.696106,222.601807 289.076416,233.292603 
	C288.766815,234.760254 288.488037,235.873383 288.033112,237.238647 
	C287.222626,238.289398 286.588348,239.087997 285.582458,239.932159 
	C280.388458,241.543579 275.566040,243.109436 270.625916,244.563599 
	C270.508179,244.451889 270.274780,244.226334 270.274780,244.226334 
	C272.364685,242.879944 274.286987,240.982239 276.574768,240.286850 
	C284.576630,237.854614 287.419128,234.199158 286.827179,225.796478 
	C286.467102,220.685516 285.796844,215.597107 285.381653,210.489151 
	C284.808960,203.443924 285.348969,196.598846 289.757904,190.272736 
z"/>
<path fill="#57BE5F" opacity="1.000000" stroke="none" 
	d="
M150.985016,222.375916 
	C156.655304,222.264725 162.325592,222.153549 168.451599,221.988739 
	C169.003967,225.764847 169.100616,229.594589 168.539062,233.646606 
	C151.283081,233.756638 134.685272,233.644348 118.165947,233.236603 
	C118.294090,232.743469 118.343773,232.545807 118.757828,232.332886 
	C128.394913,232.209625 137.667618,232.101227 146.940323,231.993759 
	C152.239716,231.932343 157.566559,232.154297 162.822174,231.643250 
	C164.438095,231.486145 165.859360,229.326996 167.369751,228.084579 
	C165.929016,226.775604 164.686096,224.968933 162.992630,224.295837 
	C161.254776,223.605087 159.049835,224.199692 157.098206,223.906494 
	C155.030487,223.595825 153.020309,222.902252 150.985016,222.375916 
z"/>
<path fill="#0E3D17" opacity="1.000000" stroke="none" 
	d="
M92.852364,122.009842 
	C90.634789,122.667999 88.441193,123.425888 86.195213,123.965836 
	C79.109436,125.669296 76.869621,128.125229 76.966354,135.324997 
	C77.075378,143.439377 77.880325,151.550232 77.827721,159.659042 
	C77.788918,165.639023 76.973427,171.656815 71.309296,175.876755 
	C70.888306,175.924545 70.636185,175.692551 70.734497,175.421722 
	C70.923111,174.780533 71.013420,174.410156 71.078201,174.024567 
	C71.052681,174.009354 71.050087,174.068726 71.339264,173.890045 
	C72.113327,172.470596 72.598213,171.229843 73.051262,170.001266 
	C73.019424,170.013443 73.048561,170.075089 73.345985,169.839981 
	C77.295166,160.887100 75.831131,151.967484 74.715866,142.649414 
	C74.828903,137.742493 74.916885,133.246796 75.052055,128.706528 
	C75.099243,128.661972 75.010139,128.567581 75.255844,128.301392 
	C75.692627,127.351746 75.883713,126.668304 76.035385,125.994888 
	C75.995964,126.004921 76.016014,126.083748 76.290710,126.023697 
	C76.737274,125.642319 76.909134,125.320976 77.040298,125.000443 
	C76.999603,125.001244 77.001221,125.082642 77.270798,125.008820 
	C77.720116,124.626503 77.899857,124.318008 78.015182,124.061798 
	C77.950768,124.114090 78.055328,124.242920 78.422737,124.130524 
	C81.919357,123.178101 85.048561,122.338066 88.645531,121.567307 
	C90.359650,121.761009 91.606003,121.885429 92.852364,122.009842 
z"/>
<path fill="#113F1B" opacity="1.000000" stroke="none" 
	d="
M304.814270,221.084869 
	C309.266663,243.316193 296.609650,258.482239 273.773071,256.804871 
	C272.358826,256.700989 271.036499,255.345795 269.799835,254.255951 
	C270.297241,253.939743 270.666199,253.940369 271.400238,254.133362 
	C278.759705,255.598511 285.379547,254.601471 291.817352,251.060303 
	C292.403595,250.782135 292.751343,250.499847 293.113281,250.190552 
	C293.127441,250.163559 293.067169,250.154373 293.411133,250.101212 
	C295.849121,247.698547 297.943176,245.349045 300.009521,242.997375 
	C299.981781,242.995193 300.007660,243.044434 300.274475,242.787720 
	C301.448364,235.685089 302.355438,228.839188 303.456757,221.875992 
	C304.038757,221.534088 304.426514,221.309479 304.814270,221.084869 
z"/>
<path fill="#113F1B" opacity="1.000000" stroke="none" 
	d="
M59.793941,149.822968 
	C56.816441,139.030792 55.850052,128.081909 62.114662,118.304054 
	C68.324402,108.611855 78.680771,106.956131 89.358429,107.183769 
	C90.415695,107.206306 91.456062,108.021172 92.713623,108.772217 
	C92.922966,109.076141 92.808243,109.163132 92.380356,109.018257 
	C83.718048,108.846817 75.589684,109.229088 68.865669,114.849487 
	C68.905586,114.827110 68.870255,114.742683 68.543983,114.852928 
	C62.432255,119.208290 60.207726,125.252655 59.924812,132.091049 
	C59.680630,137.993393 59.822655,143.911713 59.793941,149.822968 
z"/>
<path fill="#55BA5D" opacity="1.000000" stroke="none" 
	d="
M195.965408,216.098511 
	C193.517181,210.456421 191.068954,204.814346 188.307770,198.957367 
	C187.994812,198.742462 187.968674,198.441925 188.005371,197.852722 
	C188.083374,186.865067 188.124710,176.466644 188.166046,166.068207 
	C189.082336,163.685471 189.998611,161.302734 191.300842,159.280121 
	C191.422897,161.769318 191.223114,163.908600 190.884781,166.025757 
	C188.528732,180.769547 188.185547,195.310699 194.557541,209.344498 
	C195.485260,211.387695 195.518341,213.837082 195.965408,216.098511 
z"/>
<path fill="#0D4616" opacity="1.000000" stroke="none" 
	d="
M61.884247,244.122086 
	C55.957264,235.721390 58.154411,226.237045 58.321430,217.039459 
	C58.372559,214.223892 58.674572,211.406357 58.984402,208.603271 
	C59.814274,201.095245 57.782436,194.814850 51.603149,190.048859 
	C52.874256,189.885071 53.906151,190.021057 54.955605,190.119461 
	C54.973156,190.081879 54.897354,190.046295 54.926975,190.338287 
	C55.303394,190.780075 55.650192,190.929886 55.996208,191.043732 
	C55.995422,191.007767 55.923504,191.009354 55.999123,191.274445 
	C56.386829,191.720093 56.698925,191.900650 57.010941,192.035919 
	C57.010860,191.990601 56.920227,191.990723 57.019096,192.244492 
	C57.415985,192.691727 57.714001,192.885193 58.011185,193.033112 
	C58.010353,192.987564 57.919258,192.989212 58.011749,193.247314 
	C58.399162,193.695679 58.694080,193.885971 58.947586,194.014511 
	C58.906178,193.952774 58.782681,194.035568 58.871048,194.425293 
	C62.673855,201.935425 61.025028,209.418793 60.517838,216.847855 
	C59.933403,225.408386 58.177002,234.098373 62.814285,242.505157 
	C62.982639,243.177048 63.084202,243.559692 62.860115,243.985321 
	C62.317722,244.059570 62.100983,244.090820 61.884247,244.122086 
z"/>
<path fill="#55BA5D" opacity="1.000000" stroke="none" 
	d="
M59.851280,150.192947 
	C59.822655,143.911713 59.680630,137.993393 59.924812,132.091049 
	C60.207726,125.252655 62.432255,119.208290 68.442795,115.194138 
	C63.155594,122.374077 61.111702,130.233124 61.929302,139.063461 
	C62.553551,145.805542 63.073414,152.619354 62.757092,159.359848 
	C62.602676,162.650314 60.434776,165.846298 59.299732,168.717224 
	C61.318378,163.225616 62.438641,158.073059 59.997623,152.788574 
	C59.967953,152.046692 59.938286,151.304810 59.851280,150.192947 
z"/>
<path fill="#57BE5F" opacity="1.000000" stroke="none" 
	d="
M285.017822,124.117615 
	C280.956055,123.152542 276.894257,122.187469 272.146790,121.194397 
	C271.095673,121.047173 270.730255,120.927963 270.364868,120.808762 
	C270.340759,120.626312 270.316681,120.443878 270.309082,119.586670 
	C270.144409,116.034119 269.963257,113.156334 269.782104,110.278549 
	C269.840027,110.040497 269.897919,109.802452 270.067993,109.212181 
	C278.020996,108.743370 285.796387,108.962585 292.562592,113.555077 
	C288.312561,113.045258 284.299622,111.810066 280.234955,111.606140 
	C278.056305,111.496849 274.677216,112.554382 273.801178,114.157310 
	C272.164215,117.152412 275.028473,118.573227 277.620880,119.767868 
	C280.205750,120.959061 282.561584,122.647301 285.017822,124.117615 
z"/>
<path fill="#0A4113" opacity="1.000000" stroke="none" 
	d="
M235.007690,140.384171 
	C235.006836,141.022903 235.005981,141.661621 235.007538,142.618576 
	C222.487534,141.015488 211.989532,147.317398 207.855927,159.226669 
	C206.774567,162.342133 205.664810,165.447754 204.179443,168.709747 
	C203.790787,168.861603 203.460007,168.614410 203.498901,168.216370 
	C205.405350,162.224167 207.272919,156.630020 209.102722,151.047607 
	C209.064957,151.059341 209.088440,151.134872 209.389557,150.985062 
	C211.528564,148.555420 213.366455,146.275589 215.388092,143.981689 
	C215.571808,143.967606 215.930832,143.884415 216.194962,143.873901 
	C216.654236,143.579391 216.849380,143.295395 217.377899,142.859253 
	C223.161514,139.585342 229.025497,139.544617 235.007690,140.384171 
z"/>
<path fill="#0A3413" opacity="1.000000" stroke="none" 
	d="
M118.087479,233.532074 
	C134.685272,233.644348 151.283081,233.756638 168.316223,233.935913 
	C166.670242,234.506287 164.595871,235.411514 162.506409,235.447845 
	C148.910126,235.684219 135.310577,235.775558 121.712112,235.774612 
	C120.334763,235.774521 118.957474,234.845840 117.575439,234.033630 
	C117.742973,233.656815 117.915230,233.594437 118.087479,233.532074 
z"/>
<path fill="#0A4113" opacity="1.000000" stroke="none" 
	d="
M304.787170,220.658295 
	C304.426514,221.309479 304.038757,221.534088 303.371033,221.452026 
	C302.053955,212.049057 300.304749,202.922485 304.163635,194.060547 
	C304.083282,194.083267 304.128754,194.243988 304.388031,194.111465 
	C305.120331,193.380814 305.593353,192.782684 306.402893,192.035522 
	C311.453827,190.808929 316.168274,189.731354 320.914734,188.986572 
	C320.969269,189.541138 320.991791,189.762909 321.014313,189.984665 
	C307.225677,191.270096 303.833557,194.962128 303.974030,208.870712 
	C304.012299,212.659973 304.486176,216.444839 304.787170,220.658295 
z"/>
<path fill="#0D3916" opacity="1.000000" stroke="none" 
	d="
M59.832748,153.148972 
	C62.438641,158.073059 61.318378,163.225616 59.216354,168.802994 
	C59.011505,169.256592 58.990490,169.497055 58.739326,169.705017 
	C58.257561,170.277115 58.026958,170.641220 57.615288,171.089447 
	C57.208416,171.336716 57.061062,171.553284 56.743866,171.951538 
	C56.305965,172.387421 56.116352,172.694977 56.016148,172.967041 
	C56.105553,172.931534 56.051395,172.746918 55.675251,172.846024 
	C50.287609,174.019211 45.276115,175.093292 40.264622,176.167374 
	C42.240494,175.159134 44.120594,173.603607 46.208946,173.238159 
	C54.884365,171.720047 58.604115,167.709915 59.003895,158.915833 
	C59.086109,157.107361 59.439484,155.311203 59.832748,153.148972 
z"/>
<path fill="#113E1A" opacity="1.000000" stroke="none" 
	d="
M93.009941,254.971375 
	C90.050323,255.625870 87.030014,257.025574 84.142868,256.790405 
	C76.518562,256.169373 68.876068,255.001877 64.281494,247.207703 
	C64.547081,246.635574 64.771667,246.485916 65.230148,246.360931 
	C65.466187,246.388855 65.900551,246.195709 65.939011,246.155243 
	C65.977463,246.114792 65.896828,246.037598 65.916687,246.337921 
	C66.275314,246.795395 66.614075,246.952545 66.954926,247.076569 
	C66.957016,247.043457 66.890846,247.048401 66.911827,247.346802 
	C67.277885,247.796021 67.622955,247.946854 67.970360,248.064423 
	C67.972694,248.031158 67.906090,248.034836 67.944305,248.321960 
	C68.318504,248.766586 68.654488,248.924072 68.954407,249.049789 
	C68.918350,249.018005 68.854797,249.090149 69.008499,249.382050 
	C70.117615,250.194107 71.073021,250.714249 72.126770,251.372421 
	C72.402191,251.668243 72.609314,251.748474 73.190613,251.944916 
	C79.964096,253.038361 86.393433,253.938034 92.868973,254.871948 
	C92.915176,254.906204 93.009941,254.971390 93.009941,254.971375 
z"/>
<path fill="#55BA5D" opacity="1.000000" stroke="none" 
	d="
M40.282841,176.189621 
	C45.276115,175.093292 50.287609,174.019211 55.485786,173.159454 
	C52.757652,174.625504 49.932583,176.204346 46.902431,177.035629 
	C43.955219,177.844131 41.579994,179.227707 42.380642,182.275009 
	C42.862400,184.108627 45.094131,185.803787 46.937309,186.879425 
	C49.402321,188.317947 52.252991,189.095596 54.938049,190.157043 
	C53.906151,190.021057 52.874256,189.885071 51.445274,189.747955 
	C51.048187,189.746826 50.992107,189.829453 50.925079,189.638443 
	C50.580601,189.241104 50.270161,189.158295 49.712772,189.133148 
	C49.498814,189.067276 49.051598,189.088928 48.678818,188.987076 
	C47.537197,188.862518 46.768353,188.839828 45.660103,188.696930 
	C43.878147,188.512497 42.435604,188.448242 40.993057,188.384003 
	C40.860943,188.280930 40.728825,188.177872 40.399437,187.518860 
	C40.218506,183.388626 40.234848,179.814301 40.251190,176.239990 
	C40.251190,176.239990 40.301060,176.211868 40.282841,176.189621 
z"/>
<path fill="#55BA5D" opacity="1.000000" stroke="none" 
	d="
M241.008514,221.212006 
	C244.129684,219.130829 247.250854,217.049652 250.884262,214.626923 
	C252.950150,217.545456 254.995483,220.434952 257.055298,223.906555 
	C257.019012,224.649094 256.968231,224.809494 256.917450,224.969910 
	C256.374817,225.416641 255.832169,225.863388 254.870636,226.679581 
	C253.899323,227.646439 253.346893,228.243851 252.794479,228.841278 
	C252.794479,228.841278 252.900208,228.703857 252.836304,228.645798 
	C251.765228,229.097916 250.758041,229.608078 249.383759,229.847809 
	C248.983490,229.329208 248.950287,229.081039 249.121597,228.580475 
	C249.776627,227.841751 250.436844,227.429550 250.639618,226.855698 
	C251.335190,224.887253 251.870407,222.862137 252.466766,220.858627 
	C250.359390,220.674423 248.221359,220.188477 246.154053,220.398590 
	C244.404205,220.576431 242.736206,221.559784 241.026764,221.942963 
	C241.021561,221.699295 241.008514,221.212021 241.008514,221.212006 
z"/>
<path fill="#0E3D17" opacity="1.000000" stroke="none" 
	d="
M71.189842,187.794922 
	C72.866135,190.361877 75.709610,192.805664 75.995979,195.519302 
	C76.797989,203.119080 76.543732,210.830307 76.238792,218.788818 
	C75.592789,219.059601 75.414230,219.039154 75.204788,218.594254 
	C76.376373,207.812637 77.017662,197.541763 70.740250,188.217102 
	C70.890236,188.076508 71.189842,187.794922 71.189842,187.794922 
z"/>
<path fill="#0A3413" opacity="1.000000" stroke="none" 
	d="
M168.546295,129.829285 
	C151.943787,130.051117 134.972458,130.103302 117.542488,130.113312 
	C118.684021,129.687241 120.282539,128.978394 121.884605,128.970276 
	C136.181610,128.897705 150.479309,128.933121 164.776581,128.993408 
	C165.911118,128.998184 167.043869,129.427582 168.546295,129.829285 
z"/>
<path fill="#0A3413" opacity="1.000000" stroke="none" 
	d="
M187.919495,166.043625 
	C188.124710,176.466644 188.083374,186.865067 187.948059,197.713196 
	C187.303772,196.974930 186.268402,195.782150 186.280151,194.599762 
	C186.372345,185.317825 186.665024,176.037888 187.038483,166.358063 
	C187.181076,165.958786 187.672943,166.019043 187.919495,166.043625 
z"/>
<path fill="#53B65B" opacity="1.000000" stroke="none" 
	d="
M118.165947,233.236603 
	C117.915230,233.594437 117.742973,233.656815 117.301071,233.769073 
	C116.932503,230.054367 116.833595,226.289764 116.907326,222.220306 
	C118.453735,221.983521 119.827499,222.051590 121.587906,222.471252 
	C121.945358,223.185822 121.916168,223.548828 121.589241,223.945648 
	C120.890480,224.009964 120.489464,224.040451 119.838043,224.224136 
	C119.086273,224.968323 118.584892,225.559326 118.084335,226.555267 
	C118.187920,228.756180 118.290680,230.552155 118.393448,232.348145 
	C118.343773,232.545807 118.294090,232.743469 118.165947,233.236603 
z"/>
<path fill="#113F1B" opacity="1.000000" stroke="none" 
	d="
M321.291779,190.008835 
	C320.991791,189.762909 320.969269,189.541138 321.255981,188.807175 
	C322.020264,184.216705 322.475342,180.138428 322.930389,176.060165 
	C322.930389,176.060165 322.998199,176.010757 323.032623,175.988403 
	C326.299133,181.427200 325.649323,187.530014 321.291779,190.008835 
z"/>
<path fill="#0A4113" opacity="1.000000" stroke="none" 
	d="
M204.216705,193.326385 
	C204.118164,194.087830 204.004623,194.430573 203.582642,194.871979 
	C203.336136,186.185226 203.398071,177.399826 203.459991,168.614410 
	C203.460007,168.614410 203.790787,168.861603 203.956909,168.985947 
	C204.097366,171.765152 204.071686,174.420029 203.893829,177.873749 
	C203.830658,181.123795 203.919678,183.575012 204.008713,186.026215 
	C204.073044,188.320038 204.137375,190.613861 204.216705,193.326385 
z"/>
<path fill="#0A3413" opacity="1.000000" stroke="none" 
	d="
M75.235672,219.018707 
	C75.414230,219.039154 75.592789,219.059601 76.042114,219.110840 
	C76.248940,223.393402 76.184990,227.645172 76.243393,232.541321 
	C76.559563,233.435913 76.754791,233.685013 76.951439,233.932999 
	C78.172325,235.475998 79.393211,237.018982 80.659531,238.967102 
	C80.463074,239.591370 80.222809,239.812256 79.730919,240.011169 
	C79.309021,239.973770 79.140350,239.960159 78.978348,239.987335 
	C78.985008,240.028122 79.066605,240.014832 78.913162,239.760345 
	C78.164108,238.992371 77.568497,238.478912 76.965675,237.996338 
	C76.958466,238.027222 77.021896,238.026627 76.926682,237.778870 
	C76.553078,237.328537 76.274704,237.125961 76.014359,236.975876 
	C76.032394,237.028351 76.137360,236.992310 76.052422,236.575958 
	C75.723549,230.445969 75.479614,224.732346 75.235672,219.018707 
z"/>
<path fill="#0E3D17" opacity="1.000000" stroke="none" 
	d="
M69.161537,178.119919 
	C68.786263,180.147293 68.410980,182.174667 67.987541,184.649139 
	C67.939377,185.096237 67.677177,185.375076 67.370018,185.232880 
	C65.076515,184.201859 63.090164,183.313034 61.165749,182.083481 
	C61.291466,181.520859 61.355255,181.298981 61.738201,181.040405 
	C64.292870,179.911667 66.528381,178.819641 68.863113,177.825897 
	C68.962318,177.924179 69.161537,178.119919 69.161537,178.119919 
z"/>
<path fill="#113E1A" opacity="1.000000" stroke="none" 
	d="
M79.984154,240.034927 
	C80.222809,239.812256 80.463074,239.591370 80.884483,239.205170 
	C84.902115,240.182617 88.740219,241.327103 92.769791,242.760071 
	C92.961243,243.048523 92.895973,243.093002 92.496758,243.008118 
	C88.063408,242.219879 84.029274,241.516541 80.007919,240.907959 
	C80.020706,241.002716 80.210205,240.977127 80.172310,240.737122 
	C80.134415,240.497101 79.984154,240.034927 79.984154,240.034927 
z"/>
<path fill="#113E1A" opacity="1.000000" stroke="none" 
	d="
M92.994888,243.027863 
	C95.859802,246.709076 95.532295,250.549576 93.270584,254.717438 
	C93.009941,254.971390 92.915176,254.906204 92.872101,254.423065 
	C92.851349,250.324295 92.873665,246.708649 92.895981,243.093002 
	C92.895973,243.093002 92.961243,243.048523 92.994888,243.027863 
z"/>
<path fill="#0D3916" opacity="1.000000" stroke="none" 
	d="
M39.959518,176.448120 
	C40.234848,179.814301 40.218506,183.388626 40.174400,187.406921 
	C37.043491,184.245270 37.319588,180.495071 39.959518,176.448120 
z"/>
<path fill="#113F1B" opacity="1.000000" stroke="none" 
	d="
M92.981339,109.034012 
	C95.887306,112.708435 95.342751,116.563309 93.193626,120.687691 
	C92.879539,120.904594 92.709175,120.751007 92.669189,120.309830 
	C92.688873,116.300148 92.748558,112.731636 92.808243,109.163132 
	C92.808243,109.163132 92.922966,109.076141 92.981339,109.034012 
z"/>
<path fill="#11461A" opacity="1.000000" stroke="none" 
	d="
M271.035156,253.940979 
	C270.666199,253.940369 270.297241,253.939743 269.659882,253.938416 
	C269.492340,250.840591 269.593201,247.743469 269.984406,244.436340 
	C270.274780,244.226334 270.508179,244.451889 270.414856,244.894440 
	C270.597168,247.827744 270.872803,250.318466 271.098145,253.089951 
	C271.043610,253.560806 271.039398,253.750900 271.035156,253.940979 
z"/>
<path fill="#113F1B" opacity="1.000000" stroke="none" 
	d="
M269.550842,110.511597 
	C269.963257,113.156334 270.144409,116.034119 270.221893,119.324783 
	C267.293121,116.967247 267.573730,113.921013 269.550842,110.511597 
z"/>
<path fill="#408E4A" opacity="1.000000" stroke="none" 
	d="
M170.123444,139.700134 
	C169.624893,137.173538 169.434601,134.391098 169.280975,131.162994 
	C169.689011,133.626297 170.060349,136.535294 170.123444,139.700134 
z"/>
<path fill="#0D3916" opacity="1.000000" stroke="none" 
	d="
M204.130798,185.671051 
	C203.919678,183.575012 203.830658,181.123795 203.879425,178.318985 
	C204.095764,180.415558 204.174316,182.865723 204.130798,185.671051 
z"/>
<path fill="#0D3916" opacity="1.000000" stroke="none" 
	d="
M41.121670,188.655502 
	C42.435604,188.448242 43.878147,188.512497 45.676910,189.028824 
	C46.043369,189.702194 46.053608,189.923477 46.063847,190.144760 
	C44.459324,189.738846 42.854801,189.332932 41.121670,188.655502 
z"/>
<path fill="#0E3D17" opacity="1.000000" stroke="none" 
	d="
M253.050110,228.814758 
	C253.346893,228.243851 253.899323,227.646439 254.737457,226.910126 
	C254.450699,227.443542 253.878220,228.115891 253.050110,228.814758 
z"/>
<path fill="#113F1B" opacity="1.000000" stroke="none" 
	d="
M92.906715,121.773354 
	C91.606003,121.885429 90.359650,121.761009 89.021957,121.477295 
	C90.190140,121.128998 91.449661,120.940002 92.709175,120.751007 
	C92.709175,120.751007 92.879539,120.904594 92.964859,120.982193 
	C93.050186,121.059792 92.961067,121.536858 92.906715,121.773354 
z"/>
<path fill="#113F1B" opacity="1.000000" stroke="none" 
	d="
M270.459961,121.052963 
	C270.730255,120.927963 271.095673,121.047173 271.739319,121.253647 
	C272.012024,121.678253 272.006439,122.015587 271.994629,122.603378 
	C271.510620,122.334953 271.032837,121.816063 270.459961,121.052963 
z"/>
<path fill="#113E1A" opacity="1.000000" stroke="none" 
	d="
M61.999809,244.372452 
	C62.100983,244.090820 62.317722,244.059570 63.041470,244.115479 
	C63.760216,244.426300 63.889812,244.690262 63.776115,245.161514 
	C63.404289,245.555542 63.198330,245.786804 62.997089,246.022293 
	C62.703182,245.555801 62.409275,245.089310 61.999809,244.372452 
z"/>
<path fill="#0D4616" opacity="1.000000" stroke="none" 
	d="
M46.433891,190.153687 
	C46.053608,189.923477 46.043369,189.702194 46.016319,189.149017 
	C46.768353,188.839828 47.537197,188.862518 48.671326,189.257187 
	C49.034153,189.809296 49.031689,189.989441 49.029228,190.169571 
	C48.287464,190.167236 47.545696,190.164917 46.433891,190.153687 
z"/>
<path fill="#0E3D17" opacity="1.000000" stroke="none" 
	d="
M257.056763,224.917175 
	C256.968231,224.809494 257.019012,224.649094 257.152466,224.250427 
	C257.235107,224.012177 257.583832,223.997787 257.757507,223.991135 
	C257.686188,224.277802 257.441162,224.571121 257.056763,224.917175 
z"/>
<path fill="#0E3D17" opacity="1.000000" stroke="none" 
	d="
M71.014053,176.040878 
	C70.930534,176.397430 70.711243,176.628113 70.209335,176.901398 
	C69.936745,176.953522 69.747314,176.740036 69.848457,176.528900 
	C70.124199,176.049774 70.353065,175.841370 70.636185,175.692551 
	C70.636185,175.692551 70.888306,175.924545 71.014053,176.040878 
z"/>
<path fill="#0D4616" opacity="1.000000" stroke="none" 
	d="
M63.185249,246.078537 
	C63.198330,245.786804 63.404289,245.555542 63.918701,245.288330 
	C64.222427,245.248199 64.404579,245.582947 64.242760,245.743271 
	C64.080940,245.903595 63.756130,246.223053 63.756130,246.223053 
	C63.756130,246.223053 63.373409,246.134781 63.185249,246.078537 
z"/>
<path fill="#0D4616" opacity="1.000000" stroke="none" 
	d="
M64.994102,246.333023 
	C64.771667,246.485916 64.547081,246.635574 64.150368,246.892914 
	C63.980389,247.003799 63.864815,246.613464 63.810471,246.418259 
	C63.756130,246.223053 64.080940,245.903595 64.421997,245.905731 
	C64.763054,245.907852 64.994102,246.333023 64.994102,246.333023 
z"/>
<path fill="#0E3D17" opacity="1.000000" stroke="none" 
	d="
M70.174927,186.794632 
	C70.417915,186.998779 70.647888,187.216675 71.027344,187.621613 
	C71.189842,187.794922 70.890236,188.076508 70.552780,188.072113 
	C69.988861,187.838257 69.825424,187.570343 69.837555,187.146729 
	C69.950104,187.029449 70.174927,186.794632 70.174927,186.794632 
z"/>
<path fill="#0D4616" opacity="1.000000" stroke="none" 
	d="
M49.926731,189.199005 
	C50.270161,189.158295 50.580601,189.241104 50.966404,189.666473 
	C50.883629,189.947205 50.692501,190.008881 50.211697,189.883331 
	C49.922024,189.696075 49.926731,189.199005 49.926731,189.199005 
z"/>
<path fill="#0D3916" opacity="1.000000" stroke="none" 
	d="
M49.712772,189.133148 
	C49.926731,189.199005 49.922024,189.696075 49.917137,189.946472 
	C49.912254,190.196884 49.470085,190.192047 49.249657,190.180817 
	C49.031689,189.989441 49.034153,189.809296 49.044106,189.359039 
	C49.051598,189.088928 49.498814,189.067276 49.712772,189.133148 
z"/>
<path fill="#0E3D17" opacity="1.000000" stroke="none" 
	d="
M69.165001,185.798096 
	C69.407875,186.000488 69.637115,186.217300 70.013832,186.621582 
	C70.174927,186.794632 69.950104,187.029449 69.626770,187.028564 
	C69.040283,186.826065 68.849396,186.570465 68.839417,186.145279 
	C68.948059,186.029663 69.165001,185.798096 69.165001,185.798096 
z"/>
<path fill="#0E3D17" opacity="1.000000" stroke="none" 
	d="
M68.070709,184.957031 
	C68.419792,185.032150 68.634621,185.249359 69.005768,185.633789 
	C69.165001,185.798096 68.948059,186.029663 68.627930,186.043991 
	C68.037010,185.886490 67.826805,185.658737 67.677177,185.375076 
	C67.677177,185.375076 67.939377,185.096237 68.070709,184.957031 
z"/>
<path fill="#0E3D17" opacity="1.000000" stroke="none" 
	d="
M76.817291,233.737076 
	C76.754791,233.685013 76.559563,233.435913 76.222618,232.992691 
	C76.293938,233.036072 76.495148,233.283218 76.817291,233.737076 
z"/>
<path fill="#0E3D17" opacity="1.000000" stroke="none" 
	d="
M70.031189,177.060516 
	C69.918777,177.386642 69.706566,177.600449 69.325264,177.964432 
	C69.161537,178.119919 68.962318,177.924179 68.977234,177.616272 
	C69.189919,177.047241 69.441643,176.857803 69.747314,176.740036 
	C69.747314,176.740036 69.936745,176.953522 70.031189,177.060516 
z"/>
<path fill="#45CE4C" opacity="1.000000" stroke="none" 
	d="
M241.031982,222.186646 
	C242.736206,221.559784 244.404205,220.576431 246.154053,220.398590 
	C248.221359,220.188477 250.359390,220.674423 252.466766,220.858627 
	C251.870407,222.862137 251.335190,224.887253 250.639618,226.855698 
	C250.436844,227.429550 249.776627,227.841751 248.775299,228.715546 
	C238.590652,233.989700 228.179337,232.992661 217.915024,233.108032 
	C215.487625,232.209991 213.060226,231.311951 210.168396,229.934998 
	C207.437958,227.987534 205.171936,226.518967 202.905930,225.050400 
	C202.905930,225.050400 202.964767,225.037827 202.906097,224.717010 
	C201.496506,222.959137 200.145569,221.522064 198.794632,220.084976 
	C198.794632,220.084976 198.887436,219.986725 198.781921,219.832520 
	C198.429413,219.448669 198.182449,219.219040 197.935486,218.989395 
	C197.935486,218.989395 198.001312,219.004623 197.917664,218.724686 
	C197.197037,217.627029 196.560028,216.809311 195.923019,215.991592 
	C195.923019,215.991592 195.995712,216.024490 195.980560,216.061493 
	C195.518341,213.837082 195.485260,211.387695 194.557541,209.344498 
	C188.185547,195.310699 188.528732,180.769547 190.884781,166.025757 
	C191.223114,163.908600 191.422897,161.769318 191.659149,159.216095 
	C191.631500,158.791931 191.729401,158.815842 191.945099,158.586212 
	C192.730667,156.525955 193.300522,154.695312 193.870361,152.864655 
	C193.870361,152.864655 193.962097,152.912888 194.103455,152.717773 
	C194.480286,151.990097 194.715759,151.457535 194.951263,150.924973 
	C194.951263,150.924973 194.978607,150.985031 195.114258,150.753845 
	C195.489410,149.990753 195.728912,149.458832 195.968414,148.926910 
	C195.968414,148.926910 195.958801,149.000137 196.177734,148.804382 
	C196.905411,147.694016 197.414169,146.779373 197.922913,145.864746 
	C197.922928,145.864746 197.904068,145.956772 198.170746,145.812317 
	C199.255402,144.394745 200.073364,143.121628 200.891327,141.848511 
	C200.891327,141.848526 200.970047,141.900742 201.139801,141.783478 
	C201.529312,141.415146 201.749100,141.164078 201.968872,140.913025 
	C201.968872,140.913025 201.972137,140.976730 202.183105,140.804138 
	C202.916458,140.049728 203.438812,139.467926 203.961166,138.886124 
	C203.961166,138.886124 203.861191,138.950714 204.187027,138.865417 
	C205.996536,137.474030 207.480194,136.167923 208.963852,134.861801 
	C208.963852,134.861801 208.969757,134.927765 209.212296,134.957733 
	C209.638794,134.996674 209.822754,135.005615 210.180725,134.827026 
	C210.558441,134.366714 210.762146,134.093964 210.965836,133.821198 
	C210.965836,133.821198 211.021881,133.927353 211.170013,133.800171 
	C211.554398,133.430389 211.790649,133.187790 212.026917,132.945206 
	C212.162750,132.711548 212.350510,132.532303 212.922760,132.350021 
	C213.536896,132.240723 213.794861,132.131821 214.029205,131.965881 
	C214.183365,131.754379 214.378082,131.591309 215.166046,131.528046 
	C228.017426,130.264969 240.124146,130.561279 251.639130,135.849442 
	C251.779800,135.914047 251.966415,135.878632 252.131577,135.889908 
	C252.131577,135.889908 252.070038,135.809723 252.140213,136.161926 
	C252.155945,139.051575 252.101501,141.589020 252.047058,144.126450 
	C252.047058,144.126450 252.054535,144.030899 251.741348,144.096893 
	C247.972351,143.545761 244.516556,142.928635 241.060745,142.311508 
	C239.268051,141.731018 237.475357,141.150543 235.345184,140.477112 
	C229.025497,139.544617 223.161514,139.585342 217.186935,142.996902 
	C216.410492,143.475952 216.166580,143.675186 215.930832,143.884415 
	C215.930832,143.884415 215.571808,143.967606 215.051849,144.101242 
	C212.717422,146.534866 210.902924,148.834869 209.088440,151.134872 
	C209.088440,151.134872 209.064957,151.059341 208.805511,151.210938 
	C207.303207,153.088058 205.726028,154.663147 204.871155,156.563202 
	C198.860840,169.922089 200.804245,183.925888 201.915985,197.815201 
	C202.030975,199.251633 203.550629,200.575623 204.418518,201.951797 
	C204.418518,201.951797 204.223770,202.119293 204.248291,202.337891 
	C204.543869,203.190216 204.814926,203.823944 205.085999,204.457687 
	C205.085999,204.457687 205.030045,204.482330 205.052429,204.849487 
	C205.788544,206.793488 206.502274,208.370331 207.215988,209.947174 
	C207.215988,209.947174 207.107178,210.004501 207.232422,210.151337 
	C207.598892,210.534286 207.840134,210.770401 208.081375,211.006500 
	C208.081375,211.006500 208.007492,210.994537 208.108215,211.235809 
	C208.500809,211.985062 208.792679,212.493057 209.084564,213.001053 
	C209.084564,213.001053 209.003830,212.846085 209.118256,213.174408 
	C210.029114,217.281693 212.400299,219.355194 216.172836,219.911087 
	C216.172836,219.911087 216.053101,219.935837 216.215469,220.182220 
	C222.271362,225.810059 232.580536,226.545181 241.031982,222.186646 
z"/>
<path fill="#57BE5F" opacity="1.000000" stroke="none" 
	d="
M251.978516,135.575562 
	C251.966415,135.878632 251.779800,135.914047 251.639130,135.849442 
	C240.124146,130.561279 228.017426,130.264969 215.352676,131.483154 
	C227.892654,126.721977 240.192810,127.818085 251.978516,135.575562 
z"/>
<path fill="#57BE5F" opacity="1.000000" stroke="none" 
	d="
M241.182190,142.611053 
	C244.516556,142.928635 247.972351,143.545761 251.789124,144.100647 
	C251.535233,147.920105 248.823151,147.621689 246.323151,146.558456 
	C244.468338,145.769592 242.964066,144.156525 241.182190,142.611053 
z"/>
<path fill="#57BE5F" opacity="1.000000" stroke="none" 
	d="
M252.335678,143.973907 
	C252.101501,141.589020 252.155945,139.051575 252.180328,136.131165 
	C253.590729,136.701447 255.031189,137.654709 256.993530,138.953323 
	C255.319336,140.818634 253.971817,142.319992 252.335678,143.973907 
z"/>
<path fill="#55BA5D" opacity="1.000000" stroke="none" 
	d="
M208.634033,134.935272 
	C207.480194,136.167923 205.996536,137.474030 204.154739,138.815430 
	C205.299164,137.570068 206.801697,136.289413 208.634033,134.935272 
z"/>
<path fill="#55BA5D" opacity="1.000000" stroke="none" 
	d="
M193.587311,153.090729 
	C193.300522,154.695312 192.730667,156.525955 191.933456,158.635254 
	C192.238815,157.048218 192.771530,155.182510 193.587311,153.090729 
z"/>
<path fill="#55BA5D" opacity="1.000000" stroke="none" 
	d="
M200.589966,141.981110 
	C200.073364,143.121628 199.255402,144.394745 198.124756,145.802856 
	C198.637573,144.663132 199.463104,143.388428 200.589966,141.981110 
z"/>
<path fill="#55BA5D" opacity="1.000000" stroke="none" 
	d="
M197.632538,146.010406 
	C197.414169,146.779373 196.905411,147.694016 196.141113,148.799561 
	C196.371094,148.045700 196.856628,147.100891 197.632538,146.010406 
z"/>
<path fill="#55BA5D" opacity="1.000000" stroke="none" 
	d="
M203.644653,138.938110 
	C203.438812,139.467926 202.916458,140.049728 202.151749,140.798309 
	C202.382324,140.306763 202.855240,139.648422 203.644653,138.938110 
z"/>
<path fill="#55BA5D" opacity="1.000000" stroke="none" 
	d="
M195.692230,149.082123 
	C195.728912,149.458832 195.489410,149.990753 195.082520,150.762909 
	C195.082123,150.414551 195.249084,149.825958 195.692230,149.082123 
z"/>
<path fill="#55BA5D" opacity="1.000000" stroke="none" 
	d="
M194.665710,151.068375 
	C194.715759,151.457535 194.480286,151.990097 194.079315,152.763641 
	C194.069290,152.406982 194.224731,151.809387 194.665710,151.068375 
z"/>
<path fill="#55BA5D" opacity="1.000000" stroke="none" 
	d="
M201.688385,140.959045 
	C201.749100,141.164078 201.529312,141.415146 201.113678,141.822815 
	C201.081177,141.654648 201.244537,141.329865 201.688385,140.959045 
z"/>
<path fill="#57BE5F" opacity="1.000000" stroke="none" 
	d="
M210.707428,133.817322 
	C210.762146,134.093964 210.558441,134.366714 210.179550,134.591858 
	C210.004364,134.544220 210.003220,134.075089 210.003220,134.075089 
	C210.151810,133.987885 210.300400,133.900665 210.707428,133.817322 
z"/>
<path fill="#55BA5D" opacity="1.000000" stroke="none" 
	d="
M209.762512,134.132996 
	C210.003220,134.075089 210.004364,134.544220 210.005539,134.779388 
	C209.822754,135.005615 209.638794,134.996674 209.179230,134.955978 
	C208.985229,134.574875 209.191284,134.330429 209.762512,134.132996 
z"/>
<path fill="#57BE5F" opacity="1.000000" stroke="none" 
	d="
M211.759125,133.025681 
	C211.790649,133.187790 211.554398,133.430389 211.116928,133.828186 
	C211.107590,133.690979 211.299469,133.398575 211.759125,133.025681 
z"/>
<path fill="#57BE5F" opacity="1.000000" stroke="none" 
	d="
M213.753265,132.017090 
	C213.794861,132.131821 213.536896,132.240723 213.113678,132.302612 
	C213.140472,132.231216 213.308899,132.149765 213.753265,132.017090 
z"/>
<path fill="#5EC768" opacity="1.000000" stroke="none" 
	d="
M135.782104,220.919769 
	C135.792130,195.279190 135.802170,169.638596 135.906555,143.584946 
	C136.000900,143.171875 136.239182,143.160202 136.364655,143.540802 
	C136.678024,145.562668 137.026306,147.203598 137.029617,148.845230 
	C137.074203,170.889145 137.092361,192.933228 137.041672,214.977081 
	C137.037170,216.934906 136.506866,218.891495 136.106628,220.838837 
	C135.992493,220.829025 135.782104,220.919769 135.782104,220.919769 
z"/>
<path fill="#57BE5F" opacity="1.000000" stroke="none" 
	d="
M121.886978,223.911819 
	C121.916168,223.548828 121.945358,223.185822 121.994667,222.550446 
	C125.397316,222.251724 128.779846,222.225418 132.806763,222.373932 
	C133.847412,222.712296 134.243683,222.875824 134.299408,223.180801 
	C129.934906,223.518784 125.910942,223.715302 121.886978,223.911819 
z"/>
<path fill="#53B65B" opacity="1.000000" stroke="none" 
	d="
M134.639969,223.039337 
	C134.243683,222.875824 133.847412,222.712296 133.265427,222.441498 
	C133.456039,222.268204 133.832352,222.202148 134.513580,222.217804 
	C134.818497,222.299530 134.905884,222.527054 134.846680,222.658905 
	C134.787491,222.790771 134.639969,223.039337 134.639969,223.039337 
z"/>
<path fill="#22712C" opacity="1.000000" stroke="none" 
	d="
M135.893036,143.120956 
	C135.531860,142.867844 135.309753,142.635773 134.980865,142.173889 
	C134.842865,141.973938 134.844604,141.743088 135.147079,141.866882 
	C135.712769,142.380508 135.975983,142.770355 136.239182,143.160202 
	C136.239182,143.160202 136.000900,143.171875 135.893036,143.120956 
z"/>
<path fill="#22712C" opacity="1.000000" stroke="none" 
	d="
M134.798431,222.179321 
	C134.991425,221.796860 135.204498,221.534592 135.599838,221.096054 
	C135.782104,220.919769 135.992493,220.829025 135.941223,221.157761 
	C135.561920,221.833344 135.233902,222.180191 134.905884,222.527054 
	C134.905884,222.527054 134.818497,222.299530 134.798431,222.179321 
z"/>
<path fill="#47D04B" opacity="1.000000" stroke="none" 
	d="
M285.025452,124.062881 
	C282.561584,122.647301 280.205750,120.959061 277.620880,119.767868 
	C275.028473,118.573227 272.164215,117.152412 273.801178,114.157310 
	C274.677216,112.554382 278.056305,111.496849 280.234955,111.606140 
	C284.299622,111.810066 288.312561,113.045258 292.780396,113.837112 
	C293.213745,113.822952 293.141357,113.878166 293.215149,114.178230 
	C296.148956,119.252853 299.008972,124.027412 301.868958,128.801971 
	C301.979919,129.572327 302.090881,130.342651 302.086334,131.883881 
	C301.394653,142.991974 300.583618,153.325943 300.441589,163.669083 
	C300.413330,165.726395 302.946320,167.818863 304.298279,169.895111 
	C304.298279,169.895126 304.167633,170.048126 304.249908,170.181732 
	C304.579956,170.546371 304.827728,170.777374 305.075500,171.008392 
	C305.075500,171.008392 304.992249,171.009201 305.155212,171.164459 
	C305.570282,171.548950 305.822418,171.778152 306.074524,172.007370 
	C306.074524,172.007370 305.991394,172.007202 306.155518,172.160126 
	C306.573517,172.537521 306.827332,172.762009 307.081146,172.986511 
	C307.081146,172.986511 306.962708,172.888336 307.153748,173.091644 
	C307.896423,173.856018 308.448029,174.417084 309.315765,175.167694 
	C311.850861,176.003784 314.331757,176.233200 316.214386,177.415375 
	C318.059875,178.574219 320.148621,180.503723 320.603271,182.451508 
	C321.307892,185.470383 318.662354,186.318054 315.979858,187.038239 
	C312.542633,187.961044 309.295746,189.592545 305.730713,191.140259 
	C305.039337,192.322540 304.584045,193.283264 304.128754,194.243988 
	C304.128754,194.243988 304.083282,194.083267 303.864563,194.254608 
	C299.119629,199.679459 299.351349,205.991699 299.873322,212.269852 
	C300.339081,217.871979 301.162598,223.444382 301.620758,229.242096 
	C301.288147,230.973785 301.163025,232.493240 300.951233,234.406723 
	C300.578918,237.548630 300.293274,240.296539 300.007660,243.044434 
	C300.007660,243.044434 299.981781,242.995193 299.633911,242.988373 
	C298.535950,243.006454 297.785919,243.031372 296.973999,242.662476 
	C296.182770,238.211853 295.967957,233.725998 290.019043,233.757019 
	C290.003662,233.330368 289.997925,233.159775 290.009888,232.533981 
	C290.107361,229.032272 290.187134,225.985764 290.416870,222.786270 
	C290.463623,221.777969 290.360443,220.922653 290.229614,219.611969 
	C289.848358,213.120865 289.494751,207.085114 289.270691,200.713013 
	C292.228149,195.158112 295.056030,189.939545 297.883911,184.720978 
	C297.883942,184.720993 297.919250,184.832809 298.198181,184.814362 
	C299.323364,184.517471 300.169617,184.239044 301.147339,183.797684 
	C301.444000,183.411896 301.594635,183.179626 301.730774,182.937943 
	C301.784668,182.500946 301.838562,182.063950 301.661896,181.036530 
	C291.959686,173.665329 288.617615,164.402496 289.880524,153.007980 
	C290.557129,146.903244 291.033783,140.699005 290.686188,134.591705 
	C290.519806,131.667953 288.226624,128.865250 286.896698,126.007721 
	C286.896698,126.007721 286.989685,125.982285 286.837524,125.832703 
	C286.436859,125.448318 286.188324,125.213509 285.939819,124.978699 
	C285.939819,124.978699 286.022278,124.978203 285.853333,124.825851 
	C285.431213,124.444305 285.178040,124.215111 284.924866,123.985916 
	C284.924866,123.985916 285.033112,124.008148 285.025452,124.062881 
z"/>
<path fill="#55BA5D" opacity="1.000000" stroke="none" 
	d="
M305.966827,190.918686 
	C309.295746,189.592545 312.542633,187.961044 315.979858,187.038239 
	C318.662354,186.318054 321.307892,185.470383 320.603271,182.451508 
	C320.148621,180.503723 318.059875,178.574219 316.214386,177.415375 
	C314.331757,176.233200 311.850861,176.003784 309.336426,174.859650 
	C309.055298,174.156570 309.069672,173.951096 309.084076,173.745636 
	C313.427521,174.456039 317.770996,175.166458 322.522400,175.968506 
	C322.475342,180.138428 322.020264,184.216705 321.223938,188.474365 
	C316.168274,189.731354 311.453827,190.808929 306.378357,191.719025 
	C306.000488,191.340607 305.983643,191.129639 305.966827,190.918686 
z"/>
<path fill="#57BE5F" opacity="1.000000" stroke="none" 
	d="
M304.200012,169.512756 
	C302.946320,167.818863 300.413330,165.726395 300.441589,163.669083 
	C300.583618,153.325943 301.394653,142.991974 302.140442,132.269562 
	C302.358826,137.162231 302.699921,142.457611 302.385345,147.713730 
	C301.951324,154.965378 300.902863,162.196609 304.200012,169.512756 
z"/>
<path fill="#57BE5F" opacity="1.000000" stroke="none" 
	d="
M301.920319,128.410339 
	C299.008972,124.027412 296.148956,119.252853 293.185669,114.143539 
	C298.727020,116.867966 302.010559,121.404144 301.920319,128.410339 
z"/>
<path fill="#57BE5F" opacity="1.000000" stroke="none" 
	d="
M308.885284,173.536728 
	C309.069672,173.951096 309.055298,174.156570 309.020294,174.670074 
	C308.448029,174.417084 307.896423,173.856018 307.202820,173.032410 
	C307.602722,172.955826 308.144592,173.141815 308.885284,173.536728 
z"/>
<path fill="#57BE5F" opacity="1.000000" stroke="none" 
	d="
M307.020142,172.713043 
	C306.827332,172.762009 306.573517,172.537521 306.155609,172.118561 
	C306.314087,172.095917 306.636627,172.267731 307.020142,172.713043 
z"/>
<path fill="#57BE5F" opacity="1.000000" stroke="none" 
	d="
M305.987885,171.746826 
	C305.822418,171.778152 305.570282,171.548950 305.154785,171.122833 
	C305.294647,171.112717 305.597961,171.299500 305.987885,171.746826 
z"/>
<path fill="#57BE5F" opacity="1.000000" stroke="none" 
	d="
M304.995392,170.742065 
	C304.827728,170.777374 304.579956,170.546371 304.173401,170.116425 
	C304.314819,170.103592 304.615051,170.289673 304.995392,170.742065 
z"/>
<path fill="#44CD4C" opacity="1.000000" stroke="none" 
	d="
M134.846680,222.658905 
	C135.233902,222.180191 135.561920,221.833344 136.055359,221.167572 
	C136.506866,218.891495 137.037170,216.934906 137.041672,214.977081 
	C137.092361,192.933228 137.074203,170.889145 137.029617,148.845230 
	C137.026306,147.203598 136.678024,145.562668 136.364655,143.540802 
	C135.975983,142.770355 135.712769,142.380508 135.183411,141.757309 
	C131.534576,141.000687 128.053909,140.806824 124.803055,139.840134 
	C122.578743,139.178726 119.136848,137.652954 118.928047,136.142014 
	C118.392921,132.269745 122.073608,132.123840 124.894913,132.104340 
	C136.702927,132.022751 148.511871,132.063416 160.320389,132.093597 
	C161.475494,132.096542 162.867783,131.975403 163.730240,132.546143 
	C165.097122,133.450699 166.109390,134.891144 167.271713,136.104843 
	C165.957321,137.349762 164.817902,139.333176 163.294083,139.694214 
	C159.486008,140.596436 155.503448,140.762207 151.306824,141.447815 
	C150.830231,141.763809 150.637726,141.855515 149.943939,142.069672 
	C149.442688,142.192123 148.999252,142.172485 148.854584,142.539795 
	C148.480621,144.872238 148.056061,146.836945 148.051987,148.802536 
	C148.005905,171.013748 147.998871,193.225159 148.066406,215.436264 
	C148.072845,217.552399 148.653442,219.666794 149.190842,221.798004 
	C149.414200,221.814011 149.862045,221.816330 149.862045,221.816330 
	C150.047974,221.912354 150.233887,222.008392 150.702423,222.240173 
	C153.020309,222.902252 155.030487,223.595825 157.098206,223.906494 
	C159.049835,224.199692 161.254776,223.605087 162.992630,224.295837 
	C164.686096,224.968933 165.929016,226.775604 167.369751,228.084579 
	C165.859360,229.326996 164.438095,231.486145 162.822174,231.643250 
	C157.566559,232.154297 152.239716,231.932343 146.940323,231.993759 
	C137.667618,232.101227 128.394913,232.209625 118.757828,232.332886 
	C118.290680,230.552155 118.187920,228.756180 118.304474,226.365112 
	C119.045349,225.203674 119.566895,224.637299 120.088440,224.070923 
	C120.489464,224.040451 120.890480,224.009964 121.589249,223.945648 
	C125.910942,223.715302 129.934906,223.518784 134.299408,223.180801 
	C134.639969,223.039337 134.787491,222.790771 134.846680,222.658905 
z"/>
<path fill="#4DA055" opacity="1.000000" stroke="none" 
	d="
M148.999252,142.172485 
	C148.999252,142.172485 149.442688,142.192123 149.661423,142.219635 
	C149.893463,168.472153 149.906769,194.697144 149.891052,221.369232 
	C149.862045,221.816330 149.414200,221.814011 149.201752,221.354065 
	C148.992630,194.653580 148.995941,168.413025 148.999252,142.172485 
z"/>
<path fill="#57BE5F" opacity="1.000000" stroke="none" 
	d="
M286.996063,126.388779 
	C288.226624,128.865250 290.519806,131.667953 290.686188,134.591705 
	C291.033783,140.699005 290.557129,146.903244 289.880524,153.007980 
	C288.617615,164.402496 291.959686,173.665329 301.594086,180.712616 
	C294.883118,179.335922 290.304474,174.637238 289.330322,168.142075 
	C288.116272,160.047470 288.745178,151.687454 288.377777,143.451004 
	C288.129364,137.882629 287.535034,132.329697 286.996063,126.388779 
z"/>
<path fill="#55BA5D" opacity="1.000000" stroke="none" 
	d="
M297.550842,184.807617 
	C295.056030,189.939545 292.228149,195.158112 289.003235,200.700577 
	C288.428528,201.019363 288.250854,201.014236 288.073181,201.009125 
	C289.065918,197.610397 290.058655,194.211685 291.173279,190.463623 
	C293.269348,188.374283 295.243530,186.634277 297.550842,184.807617 
z"/>
<path fill="#55BA5D" opacity="1.000000" stroke="none" 
	d="
M301.015900,183.960602 
	C300.169617,184.239044 299.323364,184.517471 298.142242,184.832001 
	C298.661713,184.305756 299.515991,183.743423 300.688110,183.364807 
	C301.005981,183.548508 301.015900,183.960602 301.015900,183.960602 
z"/>
<path fill="#57BE5F" opacity="1.000000" stroke="none" 
	d="
M285.027710,124.234749 
	C285.178040,124.215111 285.431213,124.444305 285.853607,124.867081 
	C285.725403,124.868301 285.428009,124.675941 285.027710,124.234749 
z"/>
<path fill="#57BE5F" opacity="1.000000" stroke="none" 
	d="
M301.147339,183.797668 
	C301.015900,183.960602 301.005981,183.548508 301.000427,183.342499 
	C300.994873,183.136505 301.345062,182.960312 301.537903,182.949127 
	C301.594635,183.179626 301.444000,183.411896 301.147339,183.797668 
z"/>
<path fill="#57BE5F" opacity="1.000000" stroke="none" 
	d="
M286.046509,125.225571 
	C286.188324,125.213509 286.436859,125.448318 286.850281,125.879211 
	C286.727875,125.874336 286.440521,125.673393 286.046509,125.225571 
z"/>
<path fill="#57BE5F" opacity="1.000000" stroke="none" 
	d="
M218.097778,233.409637 
	C228.179337,232.992661 238.590652,233.989700 248.570801,228.967957 
	C248.950287,229.081039 248.983490,229.329208 249.064056,229.949921 
	C244.333801,231.907928 239.556198,233.493347 234.140350,235.153015 
	C233.502136,235.227264 233.050659,235.350906 233.050659,235.350906 
	C230.641235,235.351868 228.231812,235.352829 225.063477,235.283401 
	C223.879379,235.215454 223.454178,235.217911 223.028992,235.220337 
	C221.446182,234.717300 219.863358,234.214264 218.097778,233.409637 
z"/>
<path fill="#55BA5D" opacity="1.000000" stroke="none" 
	d="
M203.042770,225.360352 
	C205.171936,226.518967 207.437958,227.987534 209.876099,229.747849 
	C207.758682,228.583176 205.469147,227.126740 203.042770,225.360352 
z"/>
<path fill="#55BA5D" opacity="1.000000" stroke="none" 
	d="
M198.873291,220.413910 
	C200.145569,221.522064 201.496506,222.959137 202.898590,224.746155 
	C201.617142,223.645004 200.284546,222.193909 198.873291,220.413910 
z"/>
<path fill="#55BA5D" opacity="1.000000" stroke="none" 
	d="
M195.990784,216.302765 
	C196.560028,216.809311 197.197037,217.627029 197.906921,218.756714 
	C197.339386,218.250443 196.698959,217.432190 195.990784,216.302765 
z"/>
<path fill="#11461A" opacity="1.000000" stroke="none" 
	d="
M223.211182,235.286057 
	C223.454178,235.217911 223.879379,235.215454 224.611755,235.301407 
	C224.410416,235.377121 223.901886,235.364441 223.211182,235.286057 
z"/>
<path fill="#11461A" opacity="1.000000" stroke="none" 
	d="
M233.166443,235.368561 
	C233.050659,235.350906 233.502136,235.227264 233.735275,235.246765 
	C233.748337,235.356277 233.519608,235.396255 233.166443,235.368561 
z"/>
<path fill="#55BA5D" opacity="1.000000" stroke="none" 
	d="
M198.012573,219.255753 
	C198.182449,219.219040 198.429413,219.448669 198.831055,219.878906 
	C198.687027,219.893707 198.388336,219.707916 198.012573,219.255753 
z"/>
<path fill="#55BA5D" opacity="1.000000" stroke="none" 
	d="
M204.407074,201.549866 
	C203.550629,200.575623 202.030975,199.251633 201.915985,197.815201 
	C200.804245,183.925888 198.860840,169.922089 204.871155,156.563202 
	C205.726028,154.663147 207.303207,153.088058 208.843292,151.199219 
	C207.272919,156.630020 205.405350,162.224167 203.498901,168.216370 
	C203.398071,177.399826 203.336136,186.185226 203.414963,195.386963 
	C203.835709,197.584824 204.115677,199.366379 204.407074,201.549866 
z"/>
<path fill="#53B65B" opacity="1.000000" stroke="none" 
	d="
M241.026764,221.942963 
	C232.580536,226.545181 222.271362,225.810059 216.203125,220.122345 
	C223.877502,223.879639 231.958344,224.401566 240.639053,221.307159 
	C241.008514,221.212021 241.021561,221.699295 241.026764,221.942963 
z"/>
<path fill="#53B65B" opacity="1.000000" stroke="none" 
	d="
M215.985550,219.632263 
	C212.400299,219.355194 210.029114,217.281693 209.195740,213.134018 
	C211.371948,214.961349 213.585114,217.157394 215.985550,219.632263 
z"/>
<path fill="#53B65B" opacity="1.000000" stroke="none" 
	d="
M207.236359,209.562347 
	C206.502274,208.370331 205.788544,206.793488 205.065186,204.821716 
	C205.789291,206.010361 206.523026,207.593948 207.236359,209.562347 
z"/>
<path fill="#53B65B" opacity="1.000000" stroke="none" 
	d="
M209.086197,212.690384 
	C208.792679,212.493057 208.500809,211.985062 208.114197,211.198853 
	C208.375595,211.407013 208.731720,211.893356 209.086197,212.690384 
z"/>
<path fill="#55BA5D" opacity="1.000000" stroke="none" 
	d="
M205.087723,204.081650 
	C204.814926,203.823944 204.543869,203.190216 204.164520,202.240524 
	C204.400650,202.518250 204.745041,203.111938 205.087723,204.081650 
z"/>
<path fill="#53B65B" opacity="1.000000" stroke="none" 
	d="
M208.019928,210.724762 
	C207.840134,210.770401 207.598892,210.534286 207.203766,210.096924 
	C207.352737,210.078125 207.655594,210.260574 208.019928,210.724762 
z"/>
<path fill="#42CD47" opacity="1.000000" stroke="none" 
	d="
M290.028748,234.013062 
	C295.967957,233.725998 296.182770,238.211853 296.847168,242.974152 
	C295.543823,245.837875 294.305511,247.996124 293.067169,250.154373 
	C293.067169,250.154373 293.127441,250.163559 292.729675,250.060699 
	C288.535126,248.871109 284.738373,247.784363 280.083710,246.452072 
	C282.719238,243.504486 284.336639,241.695541 285.954071,239.886597 
	C286.588348,239.087997 287.222626,238.289398 288.249237,237.037323 
	C289.103943,235.726929 289.566345,234.869995 290.028748,234.013062 
z"/>
<path fill="#49CB4F" opacity="1.000000" stroke="none" 
	d="
M285.582458,239.932159 
	C284.336639,241.695541 282.719238,243.504486 280.083710,246.452072 
	C284.738373,247.784363 288.535126,248.871109 292.715515,250.087708 
	C292.751343,250.499847 292.403595,250.782135 291.367371,251.064026 
	C284.168762,251.645493 277.658600,252.227341 271.148468,252.809204 
	C270.872803,250.318466 270.597168,247.827744 270.532593,245.006165 
	C275.566040,243.109436 280.388458,241.543579 285.582458,239.932159 
z"/>
<path fill="#5EC768" opacity="1.000000" stroke="none" 
	d="
M287.973511,201.469193 
	C288.250854,201.014236 288.428528,201.019363 288.873688,201.036911 
	C289.494751,207.085114 289.848358,213.120865 290.204834,219.969635 
	C290.227448,221.501511 290.247162,222.220367 290.266907,222.939240 
	C290.187134,225.985764 290.107361,229.032272 289.788635,232.522125 
	C289.549713,232.965439 289.107269,232.938080 289.107269,232.938080 
	C288.696106,222.601807 288.284943,212.265533 287.973511,201.469193 
z"/>
<path fill="#49CB4F" opacity="1.000000" stroke="none" 
	d="
M289.076416,233.292603 
	C289.107269,232.938080 289.549713,232.965439 289.770966,232.977295 
	C289.997925,233.159775 290.003662,233.330368 290.019073,233.757019 
	C289.566345,234.869995 289.103943,235.726929 288.425415,236.785187 
	C288.488037,235.873383 288.766815,234.760254 289.076416,233.292603 
z"/>
<path fill="#46CF4B" opacity="1.000000" stroke="none" 
	d="
M61.419044,181.077118 
	C61.355255,181.298981 61.291466,181.520859 61.104988,182.302795 
	C61.684883,183.913910 62.148266,185.484528 63.127251,185.935287 
	C72.367752,190.189774 74.087730,198.275589 73.952385,207.148483 
	C73.835922,214.784119 73.262260,222.412796 72.625519,229.859283 
	C71.082039,227.831406 69.803795,225.988800 68.206757,223.686630 
	C65.412361,227.435120 63.704765,229.725723 61.983284,231.547424 
	C62.308979,222.628372 63.129131,214.158142 62.776451,205.737015 
	C62.611050,201.787704 60.184498,197.933090 58.782677,194.035568 
	C58.782681,194.035568 58.906178,193.952774 58.785263,193.818024 
	C58.415989,193.451935 58.167622,193.220566 57.919258,192.989212 
	C57.919258,192.989212 58.010353,192.987564 57.844051,192.837189 
	C57.425243,192.454788 57.172737,192.222748 56.920227,191.990723 
	C56.920227,191.990723 57.010860,191.990601 56.842857,191.844055 
	C56.424408,191.468109 56.173958,191.238724 55.923508,191.009354 
	C55.923504,191.009354 55.995422,191.007767 55.820198,190.864990 
	C55.395771,190.496902 55.146561,190.271591 54.897354,190.046295 
	C54.897354,190.046295 54.973156,190.081879 54.955601,190.119476 
	C52.252991,189.095596 49.402321,188.317947 46.937309,186.879425 
	C45.094131,185.803787 42.862400,184.108627 42.380642,182.275009 
	C41.579994,179.227707 43.955219,177.844131 46.902431,177.035629 
	C49.932583,176.204346 52.757652,174.625504 55.861931,173.060364 
	C56.051395,172.746918 56.105553,172.931534 56.208954,172.785004 
	C56.538956,172.366730 56.765560,172.094971 56.992157,171.823212 
	C57.061062,171.553284 57.208416,171.336716 57.830376,170.851929 
	C58.481190,170.185883 58.735840,169.841476 58.990486,169.497055 
	C58.990490,169.497055 59.011505,169.256592 59.094883,169.170807 
	C60.434776,165.846298 62.602676,162.650314 62.757092,159.359848 
	C63.073414,152.619354 62.553551,145.805542 61.929302,139.063461 
	C61.111702,130.233124 63.155594,122.374077 68.769058,115.083893 
	C68.870255,114.742683 68.905586,114.827110 69.257919,114.819756 
	C74.067245,113.617546 78.481400,112.208809 82.996605,111.304649 
	C85.903786,110.722488 89.331314,110.509087 90.266342,114.441208 
	C91.236923,118.522911 87.888359,119.120232 85.085892,120.278999 
	C82.617973,121.299446 80.389526,122.899063 78.055328,124.242920 
	C78.055328,124.242920 77.950768,124.114090 77.819275,124.224258 
	C77.458923,124.583832 77.230072,124.833237 77.001221,125.082642 
	C77.001221,125.082642 76.999603,125.001244 76.847427,125.165314 
	C76.468842,125.580841 76.242432,125.832291 76.016014,126.083748 
	C76.016014,126.083748 75.995964,126.004921 75.866837,126.301376 
	C75.495178,127.254410 75.252663,127.910995 75.010139,128.567581 
	C75.010139,128.567581 75.099243,128.661972 74.788284,129.008591 
	C74.304245,134.600693 74.131157,139.846176 73.952736,145.554352 
	C73.647789,154.036407 73.348175,162.055740 73.048561,170.075089 
	C73.048561,170.075089 73.019424,170.013443 72.809296,170.232086 
	C72.082802,171.656723 71.566444,172.862732 71.050087,174.068726 
	C71.050087,174.068726 71.052681,174.009354 70.743454,174.129700 
	C67.429169,176.525726 64.424103,178.801422 61.419044,181.077118 
z"/>
<path fill="#55BA5D" opacity="1.000000" stroke="none" 
	d="
M78.422737,124.130524 
	C80.389526,122.899063 82.617973,121.299446 85.085892,120.278999 
	C87.888359,119.120232 91.236923,118.522911 90.266342,114.441208 
	C89.331314,110.509087 85.903786,110.722488 82.996605,111.304649 
	C78.481400,112.208809 74.067245,113.617546 69.218002,114.842133 
	C75.589684,109.229088 83.718048,108.846817 92.380356,109.018257 
	C92.748558,112.731636 92.688873,116.300148 92.669189,120.309830 
	C91.449661,120.940002 90.190140,121.128998 88.554199,121.408020 
	C85.048561,122.338066 81.919357,123.178101 78.422737,124.130524 
z"/>
<path fill="#53B65B" opacity="1.000000" stroke="none" 
	d="
M73.345985,169.839981 
	C73.348175,162.055740 73.647789,154.036407 74.035843,145.295639 
	C74.313126,144.069687 74.501968,143.565155 74.690804,143.060623 
	C75.831131,151.967484 77.295166,160.887100 73.345985,169.839981 
z"/>
<path fill="#55BA5D" opacity="1.000000" stroke="none" 
	d="
M74.715866,142.649414 
	C74.501968,143.565155 74.313126,144.069687 74.041176,144.832947 
	C74.131157,139.846176 74.304245,134.600693 74.741104,129.053146 
	C74.916885,133.246796 74.828903,137.742493 74.715866,142.649414 
z"/>
<path fill="#53B65B" opacity="1.000000" stroke="none" 
	d="
M61.738197,181.040405 
	C64.424103,178.801422 67.429169,176.525726 70.768982,174.144897 
	C71.013420,174.410156 70.923111,174.780533 70.734497,175.421722 
	C70.353065,175.841370 70.124199,176.049774 69.848457,176.528900 
	C69.441643,176.857803 69.189919,177.047241 68.878021,177.518005 
	C66.528381,178.819641 64.292870,179.911667 61.738197,181.040405 
z"/>
<path fill="#53B65B" opacity="1.000000" stroke="none" 
	d="
M71.339264,173.890045 
	C71.566444,172.862732 72.082802,171.656723 72.841125,170.219910 
	C72.598213,171.229843 72.113327,172.470596 71.339264,173.890045 
z"/>
<path fill="#55BA5D" opacity="1.000000" stroke="none" 
	d="
M75.255844,128.301392 
	C75.252663,127.910995 75.495178,127.254410 75.906250,126.291336 
	C75.883713,126.668304 75.692627,127.351746 75.255844,128.301392 
z"/>
<path fill="#55BA5D" opacity="1.000000" stroke="none" 
	d="
M77.270798,125.008820 
	C77.230072,124.833237 77.458923,124.583832 77.883690,124.171967 
	C77.899857,124.318008 77.720116,124.626503 77.270798,125.008820 
z"/>
<path fill="#55BA5D" opacity="1.000000" stroke="none" 
	d="
M76.290710,126.023697 
	C76.242432,125.832291 76.468842,125.580841 76.888123,125.164513 
	C76.909134,125.320976 76.737274,125.642319 76.290710,126.023697 
z"/>
<path fill="#57BE5F" opacity="1.000000" stroke="none" 
	d="
M300.274475,242.787720 
	C300.293274,240.296539 300.578918,237.548630 301.078979,234.067169 
	C301.471680,231.899048 301.649963,230.464462 301.828247,229.029892 
	C301.162598,223.444382 300.339081,217.871979 299.873322,212.269852 
	C299.351349,205.991699 299.119629,199.679459 303.944946,194.231903 
	C300.304749,202.922485 302.053955,212.049057 303.176788,221.569321 
	C302.355438,228.839188 301.448364,235.685089 300.274475,242.787720 
z"/>
<path fill="#57BE5F" opacity="1.000000" stroke="none" 
	d="
M271.098145,253.089935 
	C277.658600,252.227341 284.168762,251.645493 291.128906,251.059906 
	C285.379547,254.601471 278.759705,255.598511 271.400238,254.133377 
	C271.039398,253.750900 271.043610,253.560806 271.098145,253.089935 
z"/>
<path fill="#57BE5F" opacity="1.000000" stroke="none" 
	d="
M293.411133,250.101212 
	C294.305511,247.996124 295.543823,245.837875 296.908997,243.367950 
	C297.785919,243.031372 298.535950,243.006454 299.661621,242.990540 
	C297.943176,245.349045 295.849121,247.698547 293.411133,250.101212 
z"/>
<path fill="#55BA5D" opacity="1.000000" stroke="none" 
	d="
M58.871044,194.425293 
	C60.184498,197.933090 62.611050,201.787704 62.776451,205.737015 
	C63.129131,214.158142 62.308979,222.628372 61.995621,231.962921 
	C62.443569,235.820404 62.865292,238.793442 63.152153,241.878876 
	C63.017292,241.991257 62.747498,242.215927 62.747498,242.215927 
	C58.177002,234.098373 59.933403,225.408386 60.517838,216.847855 
	C61.025028,209.418793 62.673855,201.935425 58.871044,194.425293 
z"/>
<path fill="#55BA5D" opacity="1.000000" stroke="none" 
	d="
M65.230148,246.360931 
	C64.994102,246.333023 64.763054,245.907852 64.583817,245.745392 
	C64.404579,245.582947 64.222427,245.248199 64.079842,245.121368 
	C63.889812,244.690262 63.760216,244.426300 63.367119,244.072495 
	C63.084202,243.559692 62.982639,243.177048 62.814285,242.505157 
	C62.747498,242.215927 63.017292,241.991257 63.402702,242.087402 
	C64.492256,243.520920 65.196404,244.858322 65.900551,246.195709 
	C65.900551,246.195709 65.466187,246.388855 65.230148,246.360931 
z"/>
<path fill="#55BA5D" opacity="1.000000" stroke="none" 
	d="
M54.926975,190.338287 
	C55.146561,190.271591 55.395771,190.496902 55.820984,190.900940 
	C55.650192,190.929886 55.303394,190.780075 54.926975,190.338287 
z"/>
<path fill="#55BA5D" opacity="1.000000" stroke="none" 
	d="
M55.999123,191.274445 
	C56.173958,191.238724 56.424408,191.468109 56.842937,191.889359 
	C56.698925,191.900650 56.386829,191.720093 55.999123,191.274445 
z"/>
<path fill="#55BA5D" opacity="1.000000" stroke="none" 
	d="
M57.019096,192.244492 
	C57.172737,192.222748 57.425243,192.454788 57.844887,192.882751 
	C57.714001,192.885193 57.415985,192.691727 57.019096,192.244492 
z"/>
<path fill="#55BA5D" opacity="1.000000" stroke="none" 
	d="
M58.011749,193.247314 
	C58.167622,193.220566 58.415989,193.451935 58.826675,193.879761 
	C58.694080,193.885971 58.399162,193.695679 58.011749,193.247314 
z"/>
<path fill="#55BA5D" opacity="1.000000" stroke="none" 
	d="
M209.389542,150.985062 
	C210.902924,148.834869 212.717422,146.534866 214.868134,144.115326 
	C213.366455,146.275589 211.528564,148.555420 209.389542,150.985062 
z"/>
<path fill="#55BA5D" opacity="1.000000" stroke="none" 
	d="
M216.194962,143.873901 
	C216.166580,143.675186 216.410492,143.475952 216.853546,143.149048 
	C216.849380,143.295395 216.654236,143.579391 216.194962,143.873901 
z"/>
<path fill="#57BE5F" opacity="1.000000" stroke="none" 
	d="
M305.730713,191.140259 
	C305.983643,191.129639 306.000488,191.340607 306.041809,191.868057 
	C305.593353,192.782684 305.120331,193.380814 304.388031,194.111465 
	C304.584045,193.283264 305.039337,192.322540 305.730713,191.140259 
z"/>
<path fill="#55BA5D" opacity="1.000000" stroke="none" 
	d="
M56.743870,171.951538 
	C56.765560,172.094971 56.538956,172.366730 56.119545,172.820526 
	C56.116352,172.694977 56.305965,172.387421 56.743870,171.951538 
z"/>
<path fill="#55BA5D" opacity="1.000000" stroke="none" 
	d="
M58.739326,169.705017 
	C58.735840,169.841476 58.481190,170.185883 58.011448,170.767822 
	C58.026958,170.641220 58.257561,170.277115 58.739326,169.705017 
z"/>
<path fill="#42CD47" opacity="1.000000" stroke="none" 
	d="
M65.939011,246.155243 
	C65.196404,244.858322 64.492256,243.520920 63.537560,241.975006 
	C62.865292,238.793442 62.443569,235.820404 62.009510,232.431854 
	C63.704765,229.725723 65.412361,227.435120 68.206757,223.686630 
	C69.803795,225.988800 71.082039,227.831406 72.672546,230.240479 
	C74.035660,232.868729 75.086510,234.930511 76.137360,236.992310 
	C76.137360,236.992310 76.032394,237.028351 76.164719,237.177826 
	C76.538658,237.560425 76.780273,237.793533 77.021896,238.026627 
	C77.021896,238.026627 76.958466,238.027222 77.117065,238.253677 
	C77.872650,238.991699 78.469627,239.503265 79.066605,240.014832 
	C79.066605,240.014832 78.985008,240.028122 79.170471,240.175903 
	C79.640701,240.541504 79.925453,240.759308 80.210205,240.977127 
	C80.210205,240.977127 80.020706,241.002716 80.223709,241.161270 
	C81.943230,242.212814 83.459740,243.105820 85.050491,244.341370 
	C86.366676,250.059555 82.853531,250.812515 78.492416,251.119354 
	C76.355507,251.334259 74.600990,251.542694 72.846474,251.751129 
	C72.609314,251.748474 72.402191,251.668243 71.937714,251.096985 
	C70.718475,250.152390 69.786636,249.621262 68.854797,249.090149 
	C68.854797,249.090149 68.918350,249.018005 68.793175,248.855682 
	C68.414032,248.473862 68.160065,248.254349 67.906090,248.034836 
	C67.906090,248.034836 67.972694,248.031158 67.810883,247.869720 
	C67.396332,247.488327 67.143585,247.268372 66.890846,247.048401 
	C66.890846,247.048401 66.957016,247.043457 66.799171,246.878693 
	C66.393158,246.488480 66.144989,246.263031 65.896828,246.037598 
	C65.896828,246.037598 65.977463,246.114792 65.939011,246.155243 
z"/>
<path fill="#53B65B" opacity="1.000000" stroke="none" 
	d="
M73.190613,251.944916 
	C74.600990,251.542694 76.355507,251.334259 78.775955,251.362045 
	C81.005829,252.059052 82.552452,252.824005 84.137474,252.914185 
	C86.993965,253.076721 90.205017,253.080811 90.674324,249.219254 
	C91.172073,245.123611 88.280579,244.215256 84.976250,243.998810 
	C83.459740,243.105820 81.943230,242.212814 80.210930,241.066513 
	C84.029274,241.516541 88.063408,242.219879 92.496765,243.008118 
	C92.873665,246.708649 92.851349,250.324295 92.825905,254.388824 
	C86.393433,253.938034 79.964096,253.038361 73.190613,251.944916 
z"/>
<path fill="#53B65B" opacity="1.000000" stroke="none" 
	d="
M69.008499,249.382050 
	C69.786636,249.621262 70.718475,250.152390 71.839371,250.958954 
	C71.073021,250.714249 70.117615,250.194107 69.008499,249.382050 
z"/>
<path fill="#55BA5D" opacity="1.000000" stroke="none" 
	d="
M65.916687,246.337921 
	C66.144989,246.263031 66.393158,246.488480 66.797089,246.911804 
	C66.614075,246.952545 66.275314,246.795395 65.916687,246.337921 
z"/>
<path fill="#55BA5D" opacity="1.000000" stroke="none" 
	d="
M66.911827,247.346802 
	C67.143585,247.268372 67.396332,247.488327 67.808548,247.902985 
	C67.622955,247.946854 67.277885,247.796021 66.911827,247.346802 
z"/>
<path fill="#55BA5D" opacity="1.000000" stroke="none" 
	d="
M67.944305,248.321960 
	C68.160065,248.254349 68.414032,248.473862 68.829239,248.887482 
	C68.654488,248.924072 68.318504,248.766586 67.944305,248.321960 
z"/>
<path fill="#53B65B" opacity="1.000000" stroke="none" 
	d="
M76.052422,236.575958 
	C75.086510,234.930511 74.035660,232.868729 72.937782,230.425735 
	C73.262260,222.412796 73.835922,214.784119 73.952385,207.148483 
	C74.087730,198.275589 72.367752,190.189774 63.127251,185.935287 
	C62.148266,185.484528 61.684883,183.913910 61.043060,182.643524 
	C63.090164,183.313034 65.076515,184.201859 67.370018,185.232880 
	C67.826805,185.658737 68.037010,185.886490 68.519279,186.159607 
	C68.849396,186.570465 69.040283,186.826065 69.514221,187.145844 
	C69.825424,187.570343 69.988861,187.838257 70.402794,188.212708 
	C77.017662,197.541763 76.376373,207.812637 75.204796,218.594254 
	C75.479614,224.732346 75.723549,230.445969 76.052422,236.575958 
z"/>
<path fill="#57BE5F" opacity="1.000000" stroke="none" 
	d="
M119.838043,224.224121 
	C119.566895,224.637299 119.045349,225.203674 118.303650,225.960190 
	C118.584892,225.559326 119.086273,224.968323 119.838043,224.224121 
z"/>
<path fill="#53B65B" opacity="1.000000" stroke="none" 
	d="
M78.913162,239.760345 
	C78.469627,239.503265 77.872650,238.991699 77.124283,238.222794 
	C77.568497,238.478912 78.164108,238.992371 78.913162,239.760345 
z"/>
<path fill="#53B65B" opacity="1.000000" stroke="none" 
	d="
M76.926674,237.778870 
	C76.780273,237.793533 76.538658,237.560425 76.146683,237.125366 
	C76.274704,237.125961 76.553078,237.328537 76.926674,237.778870 
z"/>
<path fill="#53B65B" opacity="1.000000" stroke="none" 
	d="
M80.172310,240.737122 
	C79.925453,240.759308 79.640701,240.541504 79.163811,240.135117 
	C79.140350,239.960159 79.309021,239.973770 79.730919,240.011169 
	C79.984154,240.034927 80.134415,240.497101 80.172310,240.737122 
z"/>
<path fill="#49CB4F" opacity="1.000000" stroke="none" 
	d="
M301.620758,229.242096 
	C301.649963,230.464462 301.471680,231.899048 301.165649,233.673157 
	C301.163025,232.493240 301.288147,230.973785 301.620758,229.242096 
z"/>
<path fill="#49CB4F" opacity="1.000000" stroke="none" 
	d="
M290.416840,222.786270 
	C290.247162,222.220367 290.227448,221.501511 290.232483,220.424988 
	C290.360443,220.922653 290.463623,221.777969 290.416840,222.786270 
z"/>
<path fill="#57BE5F" opacity="1.000000" stroke="none" 
	d="
M148.854584,142.539795 
	C148.995941,168.413025 148.992630,194.653580 148.978394,221.338058 
	C148.653442,219.666794 148.072845,217.552399 148.066406,215.436264 
	C147.998871,193.225159 148.005905,171.013748 148.051987,148.802536 
	C148.056061,146.836945 148.480621,144.872238 148.854584,142.539795 
z"/>
<path fill="#49CB4F" opacity="1.000000" stroke="none" 
	d="
M85.050491,244.341370 
	C88.280579,244.215256 91.172073,245.123611 90.674324,249.219254 
	C90.205017,253.080811 86.993965,253.076721 84.137474,252.914185 
	C82.552452,252.824005 81.005829,252.059052 79.158356,251.355560 
	C82.853531,250.812515 86.366676,250.059555 85.050491,244.341370 
z"/>
</svg>